NotoAmalgamated-Medium.ufo
<glyph name="uni1C50" format="2">
  <advance width="575.83607"/>
  <unicode hex="1C50"/>
  <outline>
    <contour>
      <point x="287" y="-10" type="curve" smooth="yes"/>
      <point x="460" y="-10"/>
      <point x="531" y="123"/>
      <point x="531" y="358" type="curve" smooth="yes"/>
      <point x="531" y="594"/>
      <point x="451" y="725"/>
      <point x="287" y="725" type="curve" smooth="yes"/>
      <point x="114" y="725"/>
      <point x="45" y="593"/>
      <point x="45" y="358" type="curve" smooth="yes"/>
      <point x="45" y="123"/>
      <point x="122" y="-10"/>
    </contour>
    <contour>
      <point x="287" y="79" type="curve" smooth="yes"/>
      <point x="188" y="79"/>
      <point x="151" y="170"/>
      <point x="151" y="358" type="curve" smooth="yes"/>
      <point x="151" y="547"/>
      <point x="189" y="636"/>
      <point x="287" y="636" type="curve" smooth="yes"/>
      <point x="385" y="636"/>
      <point x="424" y="547"/>
      <point x="424" y="358" type="curve" smooth="yes"/>
      <point x="424" y="169"/>
      <point x="384" y="79"/>
    </contour>
  </outline>
</glyph>
<glyph name="uni1C51" format="2">
  <advance width="522.08197"/>
  <unicode hex="1C51"/>
  <outline>
    <contour>
      <point x="472" y="-11" type="curve"/>
      <point x="472" y="95" type="line"/>
      <point x="248" y="181"/>
      <point x="157" y="370"/>
      <point x="159" y="569" type="curve"/>
      <point x="124" y="567" type="line"/>
      <point x="472" y="328" type="line"/>
      <point x="472" y="714" type="line"/>
      <point x="370" y="714" type="line"/>
      <point x="370" y="462" type="line"/>
      <point x="404" y="480" type="line"/>
      <point x="43" y="725" type="line"/>
      <point x="43" y="329"/>
      <point x="140" y="99"/>
    </contour>
  </outline>
</glyph>
<glyph name="uni1C52" format="2">
  <advance width="514.47541"/>
  <unicode hex="1C52"/>
  <outline>
    <contour>
      <point x="41" y="194" type="curve" smooth="yes"/>
      <point x="41" y="64"/>
      <point x="149" y="-11"/>
      <point x="277" y="-11" type="curve" smooth="yes"/>
      <point x="420" y="-11"/>
      <point x="484" y="99"/>
      <point x="504" y="150" type="curve"/>
      <point x="407" y="169" type="line"/>
      <point x="393" y="134"/>
      <point x="356" y="79"/>
      <point x="279" y="79" type="curve" smooth="yes"/>
      <point x="208" y="79"/>
      <point x="150" y="119"/>
      <point x="150" y="194" type="curve" smooth="yes"/>
      <point x="150" y="226"/>
      <point x="195" y="277"/>
      <point x="221" y="301" type="curve" smooth="yes"/>
      <point x="380" y="451" type="line"/>
      <point x="400" y="470"/>
      <point x="450" y="523"/>
      <point x="450" y="597" type="curve" smooth="yes"/>
      <point x="450" y="670"/>
      <point x="397" y="726"/>
      <point x="292" y="726" type="curve" smooth="yes"/>
      <point x="185" y="726"/>
      <point x="131" y="663"/>
      <point x="131" y="596" type="curve" smooth="yes"/>
      <point x="131" y="530"/>
      <point x="198" y="480"/>
      <point x="270" y="450" type="curve"/>
      <point x="272" y="485" type="line"/>
      <point x="138" y="357" type="line" smooth="yes"/>
      <point x="86" y="309"/>
      <point x="41" y="255"/>
    </contour>
    <contour>
      <point x="234" y="596" type="curve" smooth="yes"/>
      <point x="234" y="623"/>
      <point x="255" y="642"/>
      <point x="291" y="642" type="curve" smooth="yes"/>
      <point x="331" y="642"/>
      <point x="347" y="618"/>
      <point x="347" y="594" type="curve" smooth="yes"/>
      <point x="347" y="543"/>
      <point x="308" y="519"/>
      <point x="300" y="506" type="curve"/>
      <point x="320" y="505" type="line"/>
      <point x="304" y="523"/>
      <point x="234" y="559"/>
    </contour>
  </outline>
</glyph>
<glyph name="uni1C53" format="2">
  <advance width="532.21311"/>
  <unicode hex="1C53"/>
  <outline>
    <contour>
      <point x="481" y="-11" type="curve"/>
      <point x="481" y="94" type="line"/>
      <point x="287" y="132"/>
      <point x="157" y="194"/>
      <point x="157" y="289" type="curve" smooth="yes"/>
      <point x="157" y="343"/>
      <point x="211" y="407"/>
      <point x="249" y="441" type="curve"/>
      <point x="197" y="444" type="line"/>
      <point x="482" y="310" type="line"/>
      <point x="482" y="714" type="line"/>
      <point x="386" y="714" type="line"/>
      <point x="386" y="448" type="line"/>
      <point x="262" y="505" type="line"/>
      <point x="288" y="479" type="line"/>
      <point x="315" y="505"/>
      <point x="355" y="537"/>
      <point x="355" y="599" type="curve" smooth="yes"/>
      <point x="355" y="672"/>
      <point x="293" y="726"/>
      <point x="215" y="726" type="curve" smooth="yes"/>
      <point x="126" y="726"/>
      <point x="71" y="665"/>
      <point x="71" y="594" type="curve" smooth="yes"/>
      <point x="71" y="519"/>
      <point x="136" y="480"/>
      <point x="173" y="455" type="curve"/>
      <point x="168" y="478" type="line"/>
      <point x="138" y="449"/>
      <point x="52" y="375"/>
      <point x="52" y="290" type="curve" smooth="yes"/>
      <point x="52" y="121"/>
      <point x="256" y="43"/>
    </contour>
    <contour>
      <point x="235" y="518" type="line"/>
      <point x="213" y="530"/>
      <point x="163" y="559"/>
      <point x="163" y="594" type="curve" smooth="yes"/>
      <point x="163" y="618"/>
      <point x="181" y="644"/>
      <point x="213" y="644" type="curve" smooth="yes"/>
      <point x="244" y="644"/>
      <point x="264" y="622"/>
      <point x="264" y="598" type="curve" smooth="yes"/>
      <point x="264" y="563"/>
      <point x="227" y="532"/>
      <point x="212" y="520" type="curve"/>
    </contour>
  </outline>
</glyph>
<glyph name="uni1C54" format="2">
  <advance width="495.39344"/>
  <unicode hex="1C54"/>
  <outline>
    <contour>
      <point x="134" y="358" type="line"/>
      <point x="175" y="274"/>
      <point x="255" y="181"/>
      <point x="324" y="181" type="curve" smooth="yes"/>
      <point x="358" y="181"/>
      <point x="375" y="191"/>
      <point x="388" y="200" type="curve"/>
      <point x="354" y="209" type="line"/>
      <point x="360" y="201"/>
      <point x="371" y="182"/>
      <point x="371" y="157" type="curve" smooth="yes"/>
      <point x="371" y="123"/>
      <point x="349" y="75"/>
      <point x="280" y="75" type="curve" smooth="yes"/>
      <point x="187" y="75"/>
      <point x="145" y="189"/>
      <point x="145" y="300" type="curve" smooth="yes"/>
      <point x="145" y="522"/>
      <point x="310" y="609"/>
      <point x="455" y="622" type="curve"/>
      <point x="453" y="726" type="line"/>
      <point x="232" y="706"/>
      <point x="45" y="541"/>
      <point x="45" y="301" type="curve" smooth="yes"/>
      <point x="45" y="131"/>
      <point x="123" y="-11"/>
      <point x="280" y="-11" type="curve" smooth="yes"/>
      <point x="396" y="-11"/>
      <point x="464" y="67"/>
      <point x="464" y="154" type="curve" smooth="yes"/>
      <point x="464" y="227"/>
      <point x="434" y="276"/>
      <point x="415" y="299" type="curve"/>
      <point x="407" y="285"/>
      <point x="385" y="259"/>
      <point x="346" y="259" type="curve" smooth="yes"/>
      <point x="284" y="259"/>
      <point x="211" y="344"/>
      <point x="168" y="446" type="curve"/>
    </contour>
  </outline>
</glyph>
<glyph name="uni1C55" format="2">
  <advance width="561.91803"/>
  <unicode hex="1C55"/>
  <outline>
    <contour>
      <point x="432" y="169" type="line"/>
      <point x="418" y="135"/>
      <point x="390" y="79"/>
      <point x="314" y="79" type="curve" smooth="yes"/>
      <point x="222" y="79"/>
      <point x="154" y="162"/>
      <point x="154" y="323" type="curve" smooth="yes"/>
      <point x="154" y="490"/>
      <point x="255" y="616"/>
      <point x="295" y="668" type="curve"/>
      <point x="209" y="726" type="line"/>
      <point x="154" y="661"/>
      <point x="45" y="497"/>
      <point x="45" y="323" type="curve" smooth="yes"/>
      <point x="45" y="125"/>
      <point x="153" y="-11"/>
      <point x="314" y="-11" type="curve" smooth="yes"/>
      <point x="442" y="-11"/>
      <point x="530" y="99"/>
      <point x="530" y="218" type="curve"/>
      <point x="444" y="218"/>
      <point x="347" y="241"/>
      <point x="347" y="328" type="curve" smooth="yes"/>
      <point x="347" y="417"/>
      <point x="425" y="456"/>
      <point x="496" y="471" type="curve"/>
      <point x="469" y="562" type="line"/>
      <point x="405" y="550"/>
      <point x="244" y="492"/>
      <point x="244" y="328" type="curve" smooth="yes"/>
      <point x="244" y="196"/>
      <point x="364" y="144"/>
      <point x="451" y="147" type="curve"/>
    </contour>
  </outline>
</glyph>
<glyph name="uni1C56" format="2">
  <advance width="515.44262"/>
  <unicode hex="1C56"/>
  <outline>
    <contour>
      <point x="406" y="-10" type="curve"/>
      <point x="477" y="64" type="line"/>
      <point x="379" y="115"/>
      <point x="149" y="237"/>
      <point x="149" y="407" type="curve" smooth="yes"/>
      <point x="149" y="485"/>
      <point x="183" y="535"/>
      <point x="193" y="546" type="curve"/>
      <point x="167" y="551" type="line"/>
      <point x="200" y="482"/>
      <point x="252" y="413"/>
      <point x="345" y="413" type="curve" smooth="yes"/>
      <point x="440" y="413"/>
      <point x="508" y="487"/>
      <point x="508" y="568" type="curve" smooth="yes"/>
      <point x="508" y="662"/>
      <point x="439" y="726"/>
      <point x="337" y="726" type="curve" smooth="yes"/>
      <point x="263" y="726"/>
      <point x="193" y="679"/>
      <point x="174" y="666" type="curve"/>
      <point x="211" y="651" type="line"/>
      <point x="193" y="685"/>
      <point x="180" y="709"/>
      <point x="171" y="728" type="curve"/>
      <point x="94" y="685" type="line"/>
      <point x="148" y="586" type="line"/>
      <point x="144" y="637" type="line"/>
      <point x="100" y="599"/>
      <point x="44" y="505"/>
      <point x="44" y="407" type="curve" smooth="yes"/>
      <point x="44" y="205"/>
      <point x="250" y="63"/>
    </contour>
    <contour>
      <point x="345" y="497" type="curve" smooth="yes"/>
      <point x="288" y="497"/>
      <point x="249" y="579"/>
      <point x="223" y="624" type="curve"/>
      <point x="228" y="591" type="line"/>
      <point x="254" y="613"/>
      <point x="297" y="639"/>
      <point x="336" y="639" type="curve" smooth="yes"/>
      <point x="379" y="639"/>
      <point x="411" y="607"/>
      <point x="411" y="570" type="curve" smooth="yes"/>
      <point x="411" y="530"/>
      <point x="382" y="497"/>
    </contour>
  </outline>
</glyph>
<glyph name="uni1C57" format="2">
  <advance width="520.19672"/>
  <unicode hex="1C57"/>
  <outline>
    <contour>
      <point x="276" y="-11" type="curve" smooth="yes"/>
      <point x="401" y="-11"/>
      <point x="476" y="78"/>
      <point x="505" y="146" type="curve"/>
      <point x="406" y="167" type="line"/>
      <point x="395" y="141"/>
      <point x="353" y="79"/>
      <point x="278" y="79" type="curve" smooth="yes"/>
      <point x="203" y="79"/>
      <point x="159" y="130"/>
      <point x="159" y="194" type="curve" smooth="yes"/>
      <point x="159" y="228"/>
      <point x="186" y="257"/>
      <point x="216" y="286" type="curve" smooth="yes"/>
      <point x="377" y="439" type="line" smooth="yes"/>
      <point x="401" y="463"/>
      <point x="470" y="528"/>
      <point x="470" y="593" type="curve" smooth="yes"/>
      <point x="470" y="676"/>
      <point x="409" y="726"/>
      <point x="313" y="726" type="curve" smooth="yes"/>
      <point x="223" y="726"/>
      <point x="172" y="662"/>
      <point x="151" y="625" type="curve"/>
      <point x="181" y="624" type="line"/>
      <point x="89" y="720" type="line"/>
      <point x="28" y="661" type="line"/>
      <point x="197" y="487" type="line"/>
      <point x="257" y="546" type="line"/>
      <point x="202" y="602" type="line"/>
      <point x="211" y="555" type="line"/>
      <point x="219" y="591"/>
      <point x="262" y="637"/>
      <point x="307" y="637" type="curve" smooth="yes"/>
      <point x="343" y="637"/>
      <point x="362" y="618"/>
      <point x="362" y="590" type="curve" smooth="yes"/>
      <point x="362" y="559"/>
      <point x="322" y="521"/>
      <point x="302" y="503" type="curve" smooth="yes"/>
      <point x="128" y="338" type="line" smooth="yes"/>
      <point x="99" y="312"/>
      <point x="50" y="260"/>
      <point x="50" y="194" type="curve" smooth="yes"/>
      <point x="50" y="84"/>
      <point x="132" y="-11"/>
    </contour>
  </outline>
</glyph>
<glyph name="uni1C58" format="2">
  <advance width="676.55738"/>
  <unicode hex="1C58"/>
  <outline>
    <contour>
      <point x="344" y="-11" type="curve" smooth="yes"/>
      <point x="569" y="-11"/>
      <point x="626" y="134"/>
      <point x="630" y="208" type="curve"/>
      <point x="521" y="208" type="line"/>
      <point x="517" y="146"/>
      <point x="469" y="79"/>
      <point x="344" y="79" type="curve" smooth="yes"/>
      <point x="221" y="79"/>
      <point x="162" y="127"/>
      <point x="162" y="208" type="curve" smooth="yes"/>
      <point x="162" y="298" type="line"/>
      <point x="136" y="225" type="line"/>
      <point x="379" y="532" type="line"/>
      <point x="342" y="515" type="line"/>
      <point x="380" y="470"/>
      <point x="441" y="409"/>
      <point x="507" y="409" type="curve" smooth="yes"/>
      <point x="613" y="409"/>
      <point x="661" y="493"/>
      <point x="661" y="568" type="curve" smooth="yes"/>
      <point x="661" y="641"/>
      <point x="624" y="726"/>
      <point x="513" y="726" type="curve" smooth="yes"/>
      <point x="442" y="726"/>
      <point x="406" y="687"/>
      <point x="334" y="602" type="curve"/>
      <point x="389" y="602" type="line"/>
      <point x="359" y="633" type="line" smooth="yes"/>
      <point x="326" y="664"/>
      <point x="271" y="727"/>
      <point x="201" y="727" type="curve" smooth="yes"/>
      <point x="84" y="727"/>
      <point x="56" y="626"/>
      <point x="56" y="563" type="curve" smooth="yes"/>
      <point x="56" y="202" type="line" smooth="yes"/>
      <point x="56" y="97"/>
      <point x="123" y="-11"/>
    </contour>
    <contour>
      <point x="162" y="348" type="line"/>
      <point x="162" y="579" type="line" smooth="yes"/>
      <point x="162" y="600"/>
      <point x="171" y="634"/>
      <point x="204" y="634" type="curve" smooth="yes"/>
      <point x="228" y="634"/>
      <point x="282" y="578"/>
      <point x="294" y="566" type="curve" smooth="yes"/>
      <point x="324" y="536" type="line"/>
      <point x="317" y="579" type="line"/>
      <point x="137" y="357" type="line"/>
    </contour>
    <contour>
      <point x="504" y="494" type="curve" smooth="yes"/>
      <point x="469" y="494"/>
      <point x="413" y="565"/>
      <point x="406" y="570" type="curve"/>
      <point x="399" y="553" type="line"/>
      <point x="431" y="582"/>
      <point x="460" y="640"/>
      <point x="508" y="640" type="curve" smooth="yes"/>
      <point x="545" y="640"/>
      <point x="566" y="605"/>
      <point x="566" y="567" type="curve" smooth="yes"/>
      <point x="566" y="530"/>
      <point x="542" y="494"/>
    </contour>
  </outline>
</glyph>
<glyph name="uni1C59" format="2">
  <advance width="636.13115"/>
  <unicode hex="1C59"/>
  <outline>
    <contour>
      <point x="477" y="143" type="curve"/>
      <point x="508" y="214" type="line"/>
      <point x="412" y="216"/>
      <point x="356" y="255"/>
      <point x="356" y="312" type="curve" smooth="yes"/>
      <point x="356" y="347"/>
      <point x="377" y="388"/>
      <point x="426" y="388" type="curve" smooth="yes"/>
      <point x="490" y="388"/>
      <point x="510" y="321"/>
      <point x="510" y="281" type="curve" smooth="yes"/>
      <point x="510" y="169"/>
      <point x="450" y="79"/>
      <point x="338" y="79" type="curve" smooth="yes"/>
      <point x="233" y="79"/>
      <point x="155" y="177"/>
      <point x="155" y="330" type="curve" smooth="yes"/>
      <point x="155" y="497"/>
      <point x="266" y="601"/>
      <point x="379" y="632" type="curve"/>
      <point x="351" y="726" type="line"/>
      <point x="239" y="692"/>
      <point x="45" y="579"/>
      <point x="45" y="327" type="curve" smooth="yes"/>
      <point x="45" y="132"/>
      <point x="157" y="-11"/>
      <point x="338" y="-11" type="curve" smooth="yes"/>
      <point x="518" y="-11"/>
      <point x="604" y="142"/>
      <point x="604" y="271" type="curve" smooth="yes"/>
      <point x="604" y="390"/>
      <point x="532" y="470"/>
      <point x="426" y="470" type="curve" smooth="yes"/>
      <point x="340" y="470"/>
      <point x="266" y="403"/>
      <point x="266" y="312" type="curve" smooth="yes"/>
      <point x="266" y="190"/>
      <point x="378" y="145"/>
    </contour>
  </outline>
</glyph>
<glyph name="uni1C5A" format="2">
  <advance width="653.42623"/>
  <unicode hex="1C5A"/>
  <outline>
    <contour>
      <point x="318" y="-11" type="curve" smooth="yes"/>
      <point x="514" y="-11"/>
      <point x="609" y="147"/>
      <point x="609" y="324" type="curve" smooth="yes"/>
      <point x="609" y="571"/>
      <point x="478" y="726"/>
      <point x="252" y="726" type="curve" smooth="yes"/>
      <point x="118" y="726"/>
      <point x="50" y="683"/>
      <point x="50" y="640" type="curve" smooth="yes"/>
      <point x="50" y="621"/>
      <point x="59" y="602"/>
      <point x="75" y="577" type="curve" smooth="yes"/>
      <point x="142" y="468" type="line"/>
      <point x="165" y="504" type="line"/>
      <point x="43" y="504" type="line"/>
      <point x="43" y="418" type="line"/>
      <point x="163" y="418" type="line" smooth="yes"/>
      <point x="207" y="418"/>
      <point x="227" y="441"/>
      <point x="227" y="473" type="curve" smooth="yes"/>
      <point x="227" y="489"/>
      <point x="222" y="509"/>
      <point x="210" y="531" type="curve" smooth="yes"/>
      <point x="132" y="659" type="line"/>
      <point x="134" y="611" type="line"/>
      <point x="166" y="628"/>
      <point x="197" y="636"/>
      <point x="252" y="636" type="curve" smooth="yes"/>
      <point x="312" y="636"/>
      <point x="368" y="616"/>
      <point x="400" y="586" type="curve"/>
      <point x="411" y="633" type="line"/>
      <point x="64" y="195" type="line"/>
      <point x="64" y="89"/>
      <point x="171" y="-11"/>
    </contour>
    <contour>
      <point x="316" y="79" type="curve" smooth="yes"/>
      <point x="237" y="79"/>
      <point x="180" y="123"/>
      <point x="154" y="184" type="curve"/>
      <point x="141" y="139" type="line"/>
      <point x="476" y="567" type="line"/>
      <point x="436" y="545" type="line"/>
      <point x="451" y="534"/>
      <point x="500" y="446"/>
      <point x="500" y="324" type="curve" smooth="yes"/>
      <point x="500" y="213"/>
      <point x="445" y="79"/>
    </contour>
  </outline>
</glyph>
<glyph name="uni1C5B" format="2">
  <advance width="779.52459"/>
  <unicode hex="1C5B"/>
  <outline>
    <contour>
      <point x="390" y="-10" type="curve" smooth="yes"/>
      <point x="610" y="-10"/>
      <point x="722" y="137"/>
      <point x="722" y="358" type="curve" smooth="yes"/>
      <point x="722" y="580"/>
      <point x="610" y="725"/>
      <point x="391" y="725" type="curve" smooth="yes"/>
      <point x="164" y="725"/>
      <point x="57" y="579"/>
      <point x="57" y="359" type="curve" smooth="yes"/>
      <point x="57" y="138"/>
      <point x="164" y="-10"/>
    </contour>
    <contour>
      <point x="390" y="82" type="curve" smooth="yes"/>
      <point x="239" y="82"/>
      <point x="171" y="187"/>
      <point x="171" y="358" type="curve" smooth="yes"/>
      <point x="171" y="529"/>
      <point x="239" y="632"/>
      <point x="391" y="632" type="curve" smooth="yes"/>
      <point x="542" y="632"/>
      <point x="608" y="529"/>
      <point x="608" y="358" type="curve" smooth="yes"/>
      <point x="608" y="187"/>
      <point x="542" y="82"/>
    </contour>
  </outline>
</glyph>
<glyph name="uni1C5C" format="2">
  <advance width="682.4918"/>
  <unicode hex="1C5C"/>
  <outline>
    <contour>
      <point x="354" y="-11" type="curve" smooth="yes"/>
      <point x="533" y="-11"/>
      <point x="628" y="129"/>
      <point x="646" y="307" type="curve"/>
      <point x="596" y="334" type="line"/>
      <point x="565" y="317"/>
      <point x="490" y="285"/>
      <point x="438" y="285" type="curve" smooth="yes"/>
      <point x="396" y="285"/>
      <point x="363" y="308"/>
      <point x="363" y="355" type="curve" smooth="yes"/>
      <point x="363" y="395"/>
      <point x="389" y="420"/>
      <point x="435" y="420" type="curve" smooth="yes"/>
      <point x="622" y="420" type="line"/>
      <point x="621" y="509" type="line"/>
      <point x="435" y="509" type="line" smooth="yes"/>
      <point x="355" y="509"/>
      <point x="263" y="469"/>
      <point x="263" y="355" type="curve" smooth="yes"/>
      <point x="263" y="270"/>
      <point x="331" y="201"/>
      <point x="419" y="201" type="curve" smooth="yes"/>
      <point x="465" y="201"/>
      <point x="512" y="220"/>
      <point x="546" y="238" type="curve"/>
      <point x="527" y="252" type="line"/>
      <point x="533" y="178"/>
      <point x="456" y="79"/>
      <point x="355" y="79" type="curve" smooth="yes"/>
      <point x="209" y="79"/>
      <point x="154" y="214"/>
      <point x="154" y="356" type="curve" smooth="yes"/>
      <point x="154" y="490"/>
      <point x="203" y="636"/>
      <point x="342" y="636" type="curve" smooth="yes"/>
      <point x="423" y="636"/>
      <point x="463" y="569"/>
      <point x="471" y="550" type="curve"/>
      <point x="576" y="579" type="line"/>
      <point x="553" y="647"/>
      <point x="471" y="726"/>
      <point x="339" y="726" type="curve" smooth="yes"/>
      <point x="153" y="726"/>
      <point x="45" y="564"/>
      <point x="45" y="356" type="curve" smooth="yes"/>
      <point x="45" y="144"/>
      <point x="161" y="-11"/>
    </contour>
  </outline>
</glyph>
<glyph name="uni1C5D" format="2">
  <advance width="682.03279"/>
  <unicode hex="1C5D"/>
  <outline>
    <contour>
      <point x="342" y="-11" type="curve" smooth="yes"/>
      <point x="461" y="-11"/>
      <point x="541" y="53"/>
      <point x="587" y="149" type="curve"/>
      <point x="346" y="387" type="line"/>
      <point x="346" y="328" type="line"/>
      <point x="585" y="566" type="line"/>
      <point x="540" y="662"/>
      <point x="460" y="726"/>
      <point x="340" y="726" type="curve" smooth="yes"/>
      <point x="177" y="726"/>
      <point x="68" y="610"/>
      <point x="45" y="429" type="curve"/>
      <point x="149" y="429" type="line"/>
      <point x="166" y="543"/>
      <point x="225" y="636"/>
      <point x="340" y="636" type="curve" smooth="yes"/>
      <point x="419" y="636"/>
      <point x="459" y="597"/>
      <point x="483" y="557" type="curve"/>
      <point x="496" y="601" type="line"/>
      <point x="251" y="357" type="line"/>
      <point x="497" y="115" type="line"/>
      <point x="485" y="158" type="line"/>
      <point x="460" y="119"/>
      <point x="421" y="79"/>
      <point x="342" y="79" type="curve" smooth="yes"/>
      <point x="225" y="79"/>
      <point x="167" y="172"/>
      <point x="150" y="286" type="curve"/>
      <point x="47" y="286" type="line"/>
      <point x="69" y="105"/>
      <point x="178" y="-11"/>
    </contour>
    <contour>
      <point x="466" y="314" type="line"/>
      <point x="646" y="314" type="line"/>
      <point x="646" y="395" type="line"/>
      <point x="466" y="395" type="line"/>
    </contour>
  </outline>
</glyph>
<glyph name="uni1C5E" format="2">
  <advance width="593.7377"/>
  <unicode hex="1C5E"/>
  <outline>
    <contour>
      <point x="82" y="0" type="line"/>
      <point x="187" y="0" type="line"/>
      <point x="187" y="276" type="line"/>
      <point x="159" y="258" type="line"/>
      <point x="304" y="122" type="line"/>
      <point x="429" y="162"/>
      <point x="558" y="266"/>
      <point x="558" y="424" type="curve" smooth="yes"/>
      <point x="558" y="582"/>
      <point x="429" y="686"/>
      <point x="304" y="726" type="curve"/>
      <point x="159" y="590" type="line"/>
      <point x="187" y="572" type="line"/>
      <point x="187" y="714" type="line"/>
      <point x="82" y="714" type="line"/>
    </contour>
    <contour>
      <point x="187" y="303" type="line"/>
      <point x="187" y="545" type="line"/>
      <point x="166" y="490" type="line"/>
      <point x="328" y="647" type="line"/>
      <point x="284" y="626" type="line"/>
      <point x="360" y="607"/>
      <point x="449" y="537"/>
      <point x="449" y="424" type="curve" smooth="yes"/>
      <point x="449" y="311"/>
      <point x="360" y="242"/>
      <point x="284" y="222" type="curve"/>
      <point x="329" y="202" type="line"/>
      <point x="165" y="357" type="line"/>
    </contour>
  </outline>
</glyph>
<glyph name="uni1C5F" format="2">
  <advance width="712.95082"/>
  <unicode hex="1C5F"/>
  <outline>
    <contour>
      <point x="230" y="-11" type="curve" smooth="yes"/>
      <point x="346" y="-11"/>
      <point x="483" y="85"/>
      <point x="483" y="345" type="curve" smooth="yes"/>
      <point x="483" y="443"/>
      <point x="446" y="522"/>
      <point x="431" y="551" type="curve"/>
      <point x="419" y="512" type="line"/>
      <point x="493" y="619" type="line"/>
      <point x="457" y="604" type="line"/>
      <point x="508" y="565"/>
      <point x="559" y="456"/>
      <point x="559" y="345" type="curve" smooth="yes"/>
      <point x="559" y="171"/>
      <point x="477" y="42"/>
      <point x="442" y="0" type="curve"/>
      <point x="559" y="0" type="line"/>
      <point x="584" y="29"/>
      <point x="664" y="159"/>
      <point x="664" y="345" type="curve" smooth="yes"/>
      <point x="664" y="492"/>
      <point x="593" y="656"/>
      <point x="458" y="726" type="curve"/>
      <point x="364" y="592" type="line"/>
      <point x="402" y="603" type="line"/>
      <point x="348" y="682"/>
      <point x="280" y="726"/>
      <point x="202" y="726" type="curve" smooth="yes"/>
      <point x="129" y="726"/>
      <point x="75" y="685"/>
      <point x="56" y="672" type="curve"/>
      <point x="131" y="467" type="line"/>
      <point x="158" y="502" type="line"/>
      <point x="43" y="502" type="line"/>
      <point x="60" y="415" type="line"/>
      <point x="138" y="415" type="line" smooth="yes"/>
      <point x="187" y="415"/>
      <point x="210" y="443"/>
      <point x="210" y="483" type="curve" smooth="yes"/>
      <point x="210" y="496"/>
      <point x="207" y="510"/>
      <point x="202" y="524" type="curve" smooth="yes"/>
      <point x="150" y="666" type="line"/>
      <point x="146" y="615" type="line"/>
      <point x="165" y="627"/>
      <point x="178" y="636"/>
      <point x="202" y="636" type="curve" smooth="yes"/>
      <point x="254" y="636"/>
      <point x="312" y="592"/>
      <point x="343" y="518" type="curve"/>
      <point x="352" y="577" type="line"/>
      <point x="46" y="138" type="line"/>
      <point x="46" y="63"/>
      <point x="125" y="-11"/>
    </contour>
    <contour>
      <point x="230" y="79" type="curve" smooth="yes"/>
      <point x="183" y="79"/>
      <point x="147" y="117"/>
      <point x="136" y="145" type="curve"/>
      <point x="130" y="98" type="line"/>
      <point x="395" y="482" type="line"/>
      <point x="365" y="468" type="line"/>
      <point x="374" y="442"/>
      <point x="385" y="400"/>
      <point x="385" y="348" type="curve" smooth="yes"/>
      <point x="385" y="241"/>
      <point x="347" y="79"/>
    </contour>
  </outline>
</glyph>
<glyph name="uni1C60" format="2">
  <advance width="587.2623"/>
  <unicode hex="1C60"/>
  <outline>
    <contour>
      <point x="292" y="-11" type="line"/>
      <point x="422" y="29"/>
      <point x="551" y="133"/>
      <point x="551" y="291" type="curve" smooth="yes"/>
      <point x="551" y="448"/>
      <point x="422" y="552"/>
      <point x="298" y="593" type="curve"/>
      <point x="152" y="457" type="line"/>
      <point x="181" y="439" type="line"/>
      <point x="181" y="715" type="line"/>
      <point x="76" y="715" type="line"/>
      <point x="76" y="183" type="line"/>
    </contour>
    <contour>
      <point x="181" y="415" type="line"/>
      <point x="159" y="361" type="line"/>
      <point x="322" y="513" type="line"/>
      <point x="277" y="492" type="line"/>
      <point x="353" y="474"/>
      <point x="443" y="404"/>
      <point x="443" y="291" type="curve" smooth="yes"/>
      <point x="443" y="178"/>
      <point x="355" y="110"/>
      <point x="282" y="92" type="curve"/>
      <point x="327" y="74" type="line"/>
      <point x="159" y="227" type="line"/>
      <point x="181" y="171" type="line"/>
    </contour>
  </outline>
</glyph>
<glyph name="uni1C64" format="2">
  <advance width="571.32787"/>
  <unicode hex="1C64"/>
  <outline>
    <contour>
      <point x="104" y="-1" type="line"/>
      <point x="412" y="429" type="line"/>
      <point x="390" y="437" type="line"/>
      <point x="390" y="0" type="line"/>
      <point x="484" y="0" type="line"/>
      <point x="484" y="564" type="line"/>
      <point x="459" y="489" type="line"/>
      <point x="537" y="597" type="line"/>
      <point x="506" y="635"/>
      <point x="429" y="726"/>
      <point x="298" y="726" type="curve" smooth="yes"/>
      <point x="210" y="726"/>
      <point x="127" y="683"/>
      <point x="61" y="592" type="curve"/>
      <point x="128" y="530" type="line"/>
      <point x="177" y="599"/>
      <point x="238" y="636"/>
      <point x="298" y="636" type="curve" smooth="yes"/>
      <point x="371" y="636"/>
      <point x="413" y="593"/>
      <point x="436" y="563" type="curve"/>
      <point x="439" y="621" type="line"/>
      <point x="26" y="57" type="line"/>
    </contour>
  </outline>
</glyph>
<glyph name="uni1C66" format="2">
  <advance width="777.34426"/>
  <unicode hex="1C66"/>
  <outline>
    <contour>
      <point x="251" y="-11" type="curve"/>
      <point x="414" y="191" type="line"/>
      <point x="363" y="191" type="line"/>
      <point x="526" y="-11" type="line"/>
      <point x="578" y="25"/>
      <point x="732" y="173"/>
      <point x="732" y="373" type="curve" smooth="yes"/>
      <point x="732" y="563"/>
      <point x="620" y="681"/>
      <point x="580" y="726" type="curve"/>
      <point x="504" y="650" type="line"/>
      <point x="533" y="623"/>
      <point x="624" y="521"/>
      <point x="624" y="376" type="curve" smooth="yes"/>
      <point x="624" y="228"/>
      <point x="536" y="142"/>
      <point x="511" y="124" type="curve"/>
      <point x="552" y="98" type="line"/>
      <point x="389" y="298" type="line"/>
      <point x="225" y="98" type="line"/>
      <point x="268" y="124" type="line"/>
      <point x="241" y="142"/>
      <point x="154" y="228"/>
      <point x="154" y="376" type="curve" smooth="yes"/>
      <point x="154" y="521"/>
      <point x="244" y="623"/>
      <point x="273" y="650" type="curve"/>
      <point x="197" y="726" type="line"/>
      <point x="157" y="681"/>
      <point x="45" y="563"/>
      <point x="45" y="373" type="curve" smooth="yes"/>
      <point x="45" y="173"/>
      <point x="199" y="25"/>
    </contour>
  </outline>
</glyph>
<glyph name="uni1C68" format="2">
  <advance width="542.59016"/>
  <unicode hex="1C68"/>
  <outline>
    <contour>
      <point x="36" y="-11" type="line"/>
      <point x="179" y="163" type="line"/>
      <point x="126" y="163" type="line"/>
      <point x="269" y="-11" type="line"/>
      <point x="396" y="34"/>
      <point x="497" y="148"/>
      <point x="497" y="313" type="curve" smooth="yes"/>
      <point x="497" y="597"/>
      <point x="238" y="715"/>
      <point x="43" y="726" type="curve"/>
      <point x="43" y="628" type="line"/>
      <point x="240" y="608"/>
      <point x="392" y="502"/>
      <point x="392" y="307" type="curve" smooth="yes"/>
      <point x="392" y="243"/>
      <point x="375" y="217"/>
      <point x="370" y="205" type="curve"/>
      <point x="402" y="185" type="line"/>
      <point x="97" y="555" type="line"/>
      <point x="37" y="501" type="line"/>
      <point x="362" y="108" type="line"/>
      <point x="350" y="166" type="line"/>
      <point x="329" y="120"/>
      <point x="279" y="94"/>
      <point x="281" y="95" type="curve"/>
      <point x="316" y="70" type="line"/>
      <point x="153" y="266" type="line"/>
      <point x="36" y="127" type="line"/>
    </contour>
  </outline>
</glyph>
<glyph name="uni1C69" format="2">
  <advance width="553.55738"/>
  <unicode hex="1C69"/>
  <outline>
    <contour>
      <point x="306" y="-11" type="line"/>
      <point x="418" y="31"/>
      <point x="517" y="149"/>
      <point x="517" y="302" type="curve" smooth="yes"/>
      <point x="517" y="464"/>
      <point x="422" y="564"/>
      <point x="309" y="603" type="curve"/>
      <point x="265" y="588"/>
      <point x="193" y="524"/>
      <point x="170" y="461" type="curve"/>
      <point x="188" y="449" type="line"/>
      <point x="188" y="715" type="line"/>
      <point x="83" y="715" type="line"/>
      <point x="83" y="351" type="line"/>
      <point x="187" y="351" type="line"/>
      <point x="218" y="436"/>
      <point x="268" y="497"/>
      <point x="329" y="510" type="curve"/>
      <point x="269" y="512" type="line"/>
      <point x="335" y="490"/>
      <point x="409" y="430"/>
      <point x="409" y="302" type="curve" smooth="yes"/>
      <point x="409" y="188"/>
      <point x="342" y="115"/>
      <point x="287" y="94" type="curve"/>
      <point x="339" y="79" type="line"/>
      <point x="138" y="245" type="line"/>
      <point x="78" y="176" type="line"/>
    </contour>
  </outline>
</glyph>
<glyph name="uni1C6A" format="2">
  <advance width="660.4918"/>
  <unicode hex="1C6A"/>
  <outline>
    <contour>
      <point x="330" y="-10" type="curve" smooth="yes"/>
      <point x="456" y="-10"/>
      <point x="580" y="55"/>
      <point x="644" y="167" type="curve"/>
      <point x="530" y="292" type="line"/>
      <point x="531" y="525" type="line" smooth="yes"/>
      <point x="531" y="612"/>
      <point x="488" y="728"/>
      <point x="330" y="728" type="curve" smooth="yes"/>
      <point x="172" y="728"/>
      <point x="129" y="612"/>
      <point x="130" y="525" type="curve" smooth="yes"/>
      <point x="130" y="292" type="line"/>
      <point x="16" y="167" type="line"/>
      <point x="80" y="55"/>
      <point x="204" y="-10"/>
    </contour>
    <contour>
      <point x="330" y="72" type="curve" smooth="yes"/>
      <point x="228" y="72"/>
      <point x="150" y="137"/>
      <point x="122" y="172" type="curve"/>
      <point x="104" y="129" type="line"/>
      <point x="215" y="251" type="line"/>
      <point x="168" y="239" type="line"/>
      <point x="209" y="195"/>
      <point x="274" y="173"/>
      <point x="330" y="173" type="curve" smooth="yes"/>
      <point x="386" y="173"/>
      <point x="452" y="195"/>
      <point x="493" y="239" type="curve"/>
      <point x="445" y="251" type="line"/>
      <point x="551" y="135" type="line"/>
      <point x="544" y="179" type="line"/>
      <point x="514" y="135"/>
      <point x="428" y="72"/>
    </contour>
    <contour>
      <point x="330" y="264" type="curve" smooth="yes"/>
      <point x="287" y="264"/>
      <point x="240" y="287"/>
      <point x="224" y="308" type="curve"/>
      <point x="232" y="256" type="line"/>
      <point x="232" y="522" type="line" smooth="yes"/>
      <point x="232" y="570"/>
      <point x="243" y="638"/>
      <point x="330" y="638" type="curve" smooth="yes"/>
      <point x="418" y="638"/>
      <point x="428" y="570"/>
      <point x="428" y="522" type="curve" smooth="yes"/>
      <point x="428" y="256" type="line"/>
      <point x="436" y="308" type="line"/>
      <point x="421" y="286"/>
      <point x="373" y="264"/>
    </contour>
  </outline>
</glyph>
<glyph name="uni1C6B" format="2">
  <advance width="685.08197"/>
  <unicode hex="1C6B"/>
  <outline>
    <contour>
      <point x="217" y="293" type="curve" smooth="yes"/>
      <point x="251" y="293" type="line"/>
      <point x="251" y="383" type="line"/>
      <point x="217" y="383" type="line" smooth="yes"/>
      <point x="180" y="383"/>
      <point x="143" y="407"/>
      <point x="143" y="451" type="curve" smooth="yes"/>
      <point x="143" y="527"/>
      <point x="295" y="615"/>
      <point x="343" y="633" type="curve"/>
      <point x="391" y="615"/>
      <point x="542" y="527"/>
      <point x="542" y="451" type="curve" smooth="yes"/>
      <point x="542" y="407"/>
      <point x="505" y="383"/>
      <point x="468" y="383" type="curve" smooth="yes"/>
      <point x="434" y="383" type="line"/>
      <point x="434" y="293" type="line"/>
      <point x="468" y="293" type="line" smooth="yes"/>
      <point x="560" y="293"/>
      <point x="649" y="341"/>
      <point x="649" y="451" type="curve" smooth="yes"/>
      <point x="649" y="584"/>
      <point x="411" y="707"/>
      <point x="343" y="726" type="curve"/>
      <point x="275" y="707"/>
      <point x="36" y="584"/>
      <point x="36" y="451" type="curve" smooth="yes"/>
      <point x="36" y="341"/>
      <point x="125" y="293"/>
    </contour>
    <contour>
      <point x="343" y="-11" type="curve" smooth="yes"/>
      <point x="504" y="-11"/>
      <point x="541" y="159"/>
      <point x="544" y="246" type="curve"/>
      <point x="455" y="246" type="line"/>
      <point x="455" y="171"/>
      <point x="428" y="70"/>
      <point x="343" y="70" type="curve" smooth="yes"/>
      <point x="278" y="70"/>
      <point x="241" y="116"/>
      <point x="230" y="157" type="curve"/>
      <point x="343" y="124" type="line"/>
      <point x="390" y="172" type="line"/>
      <point x="390" y="517" type="line"/>
      <point x="296" y="517" type="line"/>
      <point x="296" y="206" type="line"/>
      <point x="124" y="256" type="line"/>
      <point x="124" y="163"/>
      <point x="167" y="-11"/>
    </contour>
  </outline>
</glyph>
<glyph name="uni1C6D" format="2">
  <advance width="660.31148"/>
  <unicode hex="1C6D"/>
  <outline>
    <contour>
      <point x="440" y="-11" type="curve" smooth="yes"/>
      <point x="555" y="-11"/>
      <point x="612" y="91"/>
      <point x="615" y="193" type="curve"/>
      <point x="523" y="193" type="line"/>
      <point x="523" y="127"/>
      <point x="488" y="79"/>
      <point x="440" y="79" type="curve" smooth="yes"/>
      <point x="384" y="79"/>
      <point x="350" y="145"/>
      <point x="350" y="254" type="curve" smooth="yes"/>
      <point x="350" y="378"/>
      <point x="383" y="413"/>
      <point x="443" y="413" type="curve" smooth="yes"/>
      <point x="501" y="413"/>
      <point x="582" y="344"/>
      <point x="614" y="314" type="curve"/>
      <point x="614" y="588"/>
      <point x="486" y="726"/>
      <point x="325" y="726" type="curve" smooth="yes"/>
      <point x="158" y="726"/>
      <point x="45" y="565"/>
      <point x="45" y="362" type="curve" smooth="yes"/>
      <point x="45" y="189"/>
      <point x="102" y="68"/>
      <point x="130" y="0" type="curve"/>
      <point x="247" y="0" type="line"/>
      <point x="216" y="60"/>
      <point x="150" y="190"/>
      <point x="150" y="362" type="curve" smooth="yes"/>
      <point x="150" y="517"/>
      <point x="223" y="636"/>
      <point x="325" y="636" type="curve" smooth="yes"/>
      <point x="402" y="636"/>
      <point x="498" y="555"/>
      <point x="498" y="439" type="curve"/>
      <point x="513" y="464" type="line"/>
      <point x="496" y="475"/>
      <point x="451" y="502"/>
      <point x="398" y="502" type="curve" smooth="yes"/>
      <point x="314" y="502"/>
      <point x="247" y="421"/>
      <point x="247" y="254" type="curve" smooth="yes"/>
      <point x="247" y="130"/>
      <point x="299" y="-11"/>
    </contour>
  </outline>
</glyph>
<glyph name="uni1C6E" format="2">
  <advance width="579.01639"/>
  <unicode hex="1C6E"/>
  <outline>
    <contour>
      <point x="289" y="-11" type="curve" smooth="yes"/>
      <point x="419" y="-11"/>
      <point x="511" y="75"/>
      <point x="547" y="180" type="curve"/>
      <point x="437" y="180" type="line"/>
      <point x="420" y="143"/>
      <point x="374" y="79"/>
      <point x="289" y="79" type="curve" smooth="yes"/>
      <point x="196" y="79"/>
      <point x="157" y="154"/>
      <point x="145" y="183" type="curve"/>
      <point x="127" y="139" type="line"/>
      <point x="547" y="539" type="line"/>
      <point x="507" y="645"/>
      <point x="419" y="726"/>
      <point x="290" y="726" type="curve" smooth="yes"/>
      <point x="160" y="726"/>
      <point x="68" y="640"/>
      <point x="32" y="534" type="curve"/>
      <point x="142" y="534" type="line"/>
      <point x="159" y="571"/>
      <point x="205" y="636"/>
      <point x="290" y="636" type="curve" smooth="yes"/>
      <point x="383" y="636"/>
      <point x="421" y="563"/>
      <point x="433" y="531" type="curve"/>
      <point x="455" y="579" type="line"/>
      <point x="32" y="176" type="line"/>
      <point x="72" y="70"/>
      <point x="160" y="-11"/>
    </contour>
  </outline>
</glyph>
<glyph name="uni1C6F" format="2">
  <advance width="741.57377"/>
  <unicode hex="1C6F"/>
  <outline>
    <contour>
      <point x="368" y="-11" type="curve" smooth="yes"/>
      <point x="514" y="-11"/>
      <point x="624" y="36"/>
      <point x="715" y="154" type="curve"/>
      <point x="659" y="230" type="line"/>
      <point x="627" y="188"/>
      <point x="593" y="155"/>
      <point x="556" y="131" type="curve"/>
      <point x="575" y="105" type="line"/>
      <point x="575" y="440" type="line"/>
      <point x="671" y="607" type="line"/>
      <point x="599" y="680"/>
      <point x="506" y="726"/>
      <point x="374" y="726" type="curve" smooth="yes"/>
      <point x="227" y="726"/>
      <point x="117" y="679"/>
      <point x="26" y="560" type="curve"/>
      <point x="83" y="485" type="line"/>
      <point x="113" y="527"/>
      <point x="148" y="559"/>
      <point x="185" y="583" type="curve"/>
      <point x="166" y="609" type="line"/>
      <point x="166" y="275" type="line"/>
      <point x="70" y="108" type="line"/>
      <point x="142" y="34"/>
      <point x="235" y="-11"/>
    </contour>
    <contour>
      <point x="368" y="78" type="curve" smooth="yes"/>
      <point x="289" y="78"/>
      <point x="229" y="103"/>
      <point x="177" y="143" type="curve"/>
      <point x="178" y="92" type="line"/>
      <point x="271" y="257" type="line"/>
      <point x="271" y="663" type="line"/>
      <point x="245" y="614" type="line"/>
      <point x="283" y="629"/>
      <point x="327" y="636"/>
      <point x="374" y="636" type="curve" smooth="yes"/>
      <point x="452" y="636"/>
      <point x="513" y="612"/>
      <point x="565" y="572" type="curve"/>
      <point x="564" y="620" type="line"/>
      <point x="471" y="461" type="line"/>
      <point x="471" y="51" type="line"/>
      <point x="497" y="100" type="line"/>
      <point x="458" y="84"/>
      <point x="415" y="78"/>
    </contour>
  </outline>
</glyph>
<glyph name="uni1C70" format="2">
  <advance width="742.4918"/>
  <unicode hex="1C70"/>
  <outline>
    <contour>
      <point x="305" y="0" type="curve"/>
      <point x="422" y="0" type="line"/>
      <point x="422" y="653" type="line"/>
      <point x="403" y="620" type="line"/>
      <point x="477" y="599"/>
      <point x="589" y="506"/>
      <point x="589" y="357" type="curve" smooth="yes"/>
      <point x="589" y="221"/>
      <point x="500" y="139"/>
      <point x="464" y="115" type="curve"/>
      <point x="522" y="30" type="line"/>
      <point x="572" y="63"/>
      <point x="697" y="178"/>
      <point x="697" y="357" type="curve" smooth="yes"/>
      <point x="697" y="561"/>
      <point x="538" y="680"/>
      <point x="437" y="714" type="curve"/>
      <point x="320" y="714" type="line"/>
      <point x="320" y="60" type="line"/>
      <point x="340" y="93" type="line"/>
      <point x="265" y="114"/>
      <point x="153" y="207"/>
      <point x="153" y="357" type="curve" smooth="yes"/>
      <point x="153" y="492"/>
      <point x="242" y="575"/>
      <point x="278" y="599" type="curve"/>
      <point x="221" y="684" type="line"/>
      <point x="171" y="651"/>
      <point x="45" y="536"/>
      <point x="45" y="357" type="curve" smooth="yes"/>
      <point x="45" y="153"/>
      <point x="205" y="34"/>
    </contour>
  </outline>
</glyph>
<glyph name="uni1C71" format="2">
  <advance width="579.21311"/>
  <unicode hex="1C71"/>
  <outline>
    <contour>
      <point x="290" y="726" type="curve" smooth="yes"/>
      <point x="164" y="726"/>
      <point x="93" y="666"/>
      <point x="61" y="635" type="curve"/>
      <point x="162" y="559" type="line"/>
      <point x="129" y="622" type="line"/>
      <point x="129" y="184" type="line"/>
      <point x="153" y="259" type="line"/>
      <point x="68" y="143" type="line"/>
      <point x="105" y="82"/>
      <point x="166" y="-11"/>
      <point x="292" y="-11" type="curve" smooth="yes"/>
      <point x="414" y="-11"/>
      <point x="488" y="100"/>
      <point x="517" y="160" type="curve"/>
      <point x="405" y="160" type="line"/>
      <point x="394" y="138"/>
      <point x="355" y="79"/>
      <point x="292" y="79" type="curve" smooth="yes"/>
      <point x="233" y="79"/>
      <point x="189" y="129"/>
      <point x="172" y="168" type="curve"/>
      <point x="159" y="113" type="line"/>
      <point x="489" y="574" type="line"/>
      <point x="437" y="569" type="line"/>
      <point x="483" y="533"/>
      <point x="500" y="479"/>
      <point x="508" y="465" type="curve"/>
      <point x="554" y="573" type="line"/>
      <point x="501" y="659"/>
      <point x="412" y="726"/>
    </contour>
    <contour>
      <point x="288" y="636" type="curve" smooth="yes"/>
      <point x="346" y="636"/>
      <point x="392" y="611"/>
      <point x="411" y="593" type="curve"/>
      <point x="422" y="636" type="line"/>
      <point x="198" y="319" type="line"/>
      <point x="222" y="310" type="line"/>
      <point x="222" y="670" type="line"/>
      <point x="215" y="625" type="line"/>
      <point x="211" y="624"/>
      <point x="238" y="636"/>
    </contour>
  </outline>
</glyph>
<glyph name="uni1C72" format="2">
  <advance width="579.21311"/>
  <unicode hex="1C72"/>
  <outline>
    <contour>
      <point x="284" y="-11" type="curve" smooth="yes"/>
      <point x="410" y="-11"/>
      <point x="481" y="48"/>
      <point x="513" y="80" type="curve"/>
      <point x="412" y="156" type="line"/>
      <point x="445" y="93" type="line"/>
      <point x="445" y="530" type="line"/>
      <point x="421" y="456" type="line"/>
      <point x="506" y="572" type="line"/>
      <point x="469" y="633"/>
      <point x="408" y="726"/>
      <point x="282" y="726" type="curve" smooth="yes"/>
      <point x="160" y="726"/>
      <point x="86" y="614"/>
      <point x="57" y="555" type="curve"/>
      <point x="169" y="555" type="line"/>
      <point x="180" y="577"/>
      <point x="219" y="636"/>
      <point x="282" y="636" type="curve" smooth="yes"/>
      <point x="341" y="636"/>
      <point x="385" y="586"/>
      <point x="402" y="547" type="curve"/>
      <point x="415" y="602" type="line"/>
      <point x="85" y="141" type="line"/>
      <point x="137" y="146" type="line"/>
      <point x="91" y="181"/>
      <point x="74" y="236"/>
      <point x="66" y="249" type="curve"/>
      <point x="20" y="142" type="line"/>
      <point x="73" y="55"/>
      <point x="162" y="-11"/>
    </contour>
    <contour>
      <point x="286" y="79" type="curve" smooth="yes"/>
      <point x="228" y="79"/>
      <point x="182" y="103"/>
      <point x="163" y="122" type="curve"/>
      <point x="152" y="78" type="line"/>
      <point x="376" y="396" type="line"/>
      <point x="352" y="404" type="line"/>
      <point x="352" y="45" type="line"/>
      <point x="385" y="102" type="line"/>
      <point x="367" y="90"/>
      <point x="336" y="79"/>
    </contour>
  </outline>
</glyph>
<glyph name="uni1C73" format="2">
  <advance width="675.4918"/>
  <unicode hex="1C73"/>
  <outline>
    <contour>
      <point x="325" y="-11" type="curve" smooth="yes"/>
      <point x="517" y="-11"/>
      <point x="630" y="142"/>
      <point x="630" y="357" type="curve" smooth="yes"/>
      <point x="630" y="573"/>
      <point x="519" y="725"/>
      <point x="325" y="725" type="curve" smooth="yes"/>
      <point x="163" y="725"/>
      <point x="74" y="615"/>
      <point x="41" y="473" type="curve"/>
      <point x="149" y="473" type="line"/>
      <point x="160" y="546"/>
      <point x="229" y="635"/>
      <point x="325" y="635" type="curve" smooth="yes"/>
      <point x="418" y="635"/>
      <point x="486" y="577"/>
      <point x="514" y="477" type="curve"/>
      <point x="541" y="475" type="line"/>
      <point x="517" y="503"/>
      <point x="481" y="531"/>
      <point x="422" y="531" type="curve" smooth="yes"/>
      <point x="324" y="531"/>
      <point x="257" y="454"/>
      <point x="257" y="357" type="curve" smooth="yes"/>
      <point x="257" y="260"/>
      <point x="324" y="183"/>
      <point x="422" y="183" type="curve" smooth="yes"/>
      <point x="480" y="183"/>
      <point x="517" y="210"/>
      <point x="540" y="238" type="curve"/>
      <point x="514" y="235" type="line"/>
      <point x="486" y="142"/>
      <point x="418" y="79"/>
      <point x="325" y="79" type="curve" smooth="yes"/>
      <point x="229" y="79"/>
      <point x="160" y="168"/>
      <point x="149" y="241" type="curve"/>
      <point x="41" y="241" type="line"/>
      <point x="73" y="99"/>
      <point x="163" y="-11"/>
    </contour>
    <contour>
      <point x="413" y="284" type="curve" smooth="yes"/>
      <point x="374" y="294"/>
      <point x="349" y="336"/>
      <point x="359" y="375" type="curve" smooth="yes"/>
      <point x="369" y="414"/>
      <point x="410" y="440"/>
      <point x="450" y="430" type="curve" smooth="yes"/>
      <point x="489" y="420"/>
      <point x="514" y="378"/>
      <point x="504" y="339" type="curve" smooth="yes"/>
      <point x="494" y="300"/>
      <point x="453" y="274"/>
    </contour>
  </outline>
</glyph>
<glyph name="uni1C74" format="2">
  <advance width="637.55738"/>
  <unicode hex="1C74"/>
  <outline>
    <contour>
      <point x="82" y="0" type="line"/>
      <point x="186" y="0" type="line"/>
      <point x="186" y="470" type="line"/>
      <point x="155" y="387" type="line"/>
      <point x="406" y="629" type="line"/>
      <point x="360" y="605" type="line"/>
      <point x="395" y="580"/>
      <point x="485" y="498"/>
      <point x="485" y="352" type="curve" smooth="yes"/>
      <point x="485" y="189"/>
      <point x="369" y="63"/>
      <point x="313" y="0" type="curve"/>
      <point x="449" y="0" type="line"/>
      <point x="492" y="53"/>
      <point x="592" y="188"/>
      <point x="592" y="355" type="curve" smooth="yes"/>
      <point x="592" y="527"/>
      <point x="472" y="672"/>
      <point x="377" y="726" type="curve"/>
      <point x="157" y="514" type="line"/>
      <point x="186" y="498" type="line"/>
      <point x="186" y="714" type="line"/>
      <point x="82" y="714" type="line"/>
    </contour>
  </outline>
</glyph>
<glyph name="uni1C76" format="2">
  <advance width="661.4918"/>
  <unicode hex="1C76"/>
  <outline>
    <contour>
      <point x="335" y="-11" type="curve" smooth="yes"/>
      <point x="502" y="-11"/>
      <point x="615" y="150"/>
      <point x="615" y="352" type="curve" smooth="yes"/>
      <point x="615" y="385"/>
      <point x="613" y="417"/>
      <point x="609" y="446" type="curve"/>
      <point x="504" y="446" type="line"/>
      <point x="508" y="417"/>
      <point x="510" y="385"/>
      <point x="510" y="352" type="curve" smooth="yes"/>
      <point x="510" y="197"/>
      <point x="437" y="79"/>
      <point x="335" y="79" type="curve" smooth="yes"/>
      <point x="258" y="79"/>
      <point x="162" y="159"/>
      <point x="162" y="275" type="curve"/>
      <point x="148" y="251" type="line"/>
      <point x="165" y="239"/>
      <point x="209" y="213"/>
      <point x="263" y="213" type="curve" smooth="yes"/>
      <point x="347" y="213"/>
      <point x="413" y="294"/>
      <point x="413" y="461" type="curve" smooth="yes"/>
      <point x="413" y="585"/>
      <point x="362" y="726"/>
      <point x="220" y="726" type="curve" smooth="yes"/>
      <point x="105" y="726"/>
      <point x="49" y="624"/>
      <point x="45" y="522" type="curve"/>
      <point x="137" y="522" type="line"/>
      <point x="137" y="587"/>
      <point x="172" y="636"/>
      <point x="220" y="636" type="curve" smooth="yes"/>
      <point x="277" y="636"/>
      <point x="311" y="569"/>
      <point x="311" y="461" type="curve" smooth="yes"/>
      <point x="311" y="337"/>
      <point x="277" y="302"/>
      <point x="217" y="302" type="curve" smooth="yes"/>
      <point x="159" y="302"/>
      <point x="78" y="371"/>
      <point x="46" y="401" type="curve"/>
      <point x="46" y="127"/>
      <point x="174" y="-11"/>
    </contour>
    <contour>
      <point x="550" y="510" type="curve" smooth="yes"/>
      <point x="588" y="510"/>
      <point x="620" y="542"/>
      <point x="620" y="580" type="curve" smooth="yes"/>
      <point x="620" y="618"/>
      <point x="588" y="649"/>
      <point x="550" y="649" type="curve" smooth="yes"/>
      <point x="512" y="649"/>
      <point x="480" y="618"/>
      <point x="480" y="580" type="curve" smooth="yes"/>
      <point x="480" y="542"/>
      <point x="512" y="510"/>
    </contour>
  </outline>
</glyph>
<glyph name="uni1C77" format="2">
  <advance width="737.18033"/>
  <unicode hex="1C77"/>
  <outline>
    <contour>
      <point x="212" y="-11" type="curve"/>
      <point x="387" y="163" type="line"/>
      <point x="328" y="163" type="line"/>
      <point x="503" y="-11" type="line"/>
      <point x="553" y="25"/>
      <point x="692" y="143"/>
      <point x="692" y="332" type="curve" smooth="yes"/>
      <point x="692" y="533"/>
      <point x="556" y="726"/>
      <point x="360" y="726" type="curve" smooth="yes"/>
      <point x="235" y="726"/>
      <point x="191" y="639"/>
      <point x="191" y="571" type="curve" smooth="yes"/>
      <point x="191" y="418"/>
      <point x="375" y="297"/>
      <point x="619" y="306" type="curve"/>
      <point x="585" y="316" type="line"/>
      <point x="583" y="202"/>
      <point x="512" y="129"/>
      <point x="487" y="115" type="curve"/>
      <point x="527" y="92" type="line"/>
      <point x="358" y="263" type="line"/>
      <point x="190" y="95" type="line"/>
      <point x="227" y="115" type="line"/>
      <point x="210" y="130"/>
      <point x="154" y="187"/>
      <point x="154" y="300" type="curve" smooth="yes"/>
      <point x="154" y="359"/>
      <point x="170" y="410"/>
      <point x="193" y="454" type="curve"/>
      <point x="97" y="496" type="line"/>
      <point x="66" y="440"/>
      <point x="45" y="371"/>
      <point x="45" y="291" type="curve" smooth="yes"/>
      <point x="45" y="113"/>
      <point x="163" y="25"/>
    </contour>
    <contour>
      <point x="299" y="566" type="curve" smooth="yes"/>
      <point x="299" y="605"/>
      <point x="322" y="636"/>
      <point x="372" y="636" type="curve" smooth="yes"/>
      <point x="487" y="636"/>
      <point x="584" y="483"/>
      <point x="584" y="387" type="curve"/>
      <point x="607" y="392" type="line"/>
      <point x="484" y="386"/>
      <point x="299" y="440"/>
    </contour>
  </outline>
</glyph>
<glyph name="uni1C78" format="2">
  <advance width="273.01639"/>
  <unicode hex="1C78"/>
  <outline>
    <contour>
      <point x="136" y="582" type="curve" smooth="yes"/>
      <point x="173" y="582"/>
      <point x="205" y="603"/>
      <point x="205" y="654" type="curve" smooth="yes"/>
      <point x="205" y="707"/>
      <point x="173" y="726"/>
      <point x="136" y="726" type="curve" smooth="yes"/>
      <point x="98" y="726"/>
      <point x="68" y="707"/>
      <point x="68" y="654" type="curve" smooth="yes"/>
      <point x="68" y="603"/>
      <point x="98" y="582"/>
    </contour>
  </outline>
</glyph>
<glyph name="uni1C79" format="2">
  <advance width="273.01639"/>
  <unicode hex="1C79"/>
  <outline>
    <contour>
      <point x="136" y="-14" type="curve" smooth="yes"/>
      <point x="173" y="-14"/>
      <point x="205" y="7"/>
      <point x="205" y="59" type="curve" smooth="yes"/>
      <point x="205" y="111"/>
      <point x="173" y="130"/>
      <point x="136" y="130" type="curve" smooth="yes"/>
      <point x="98" y="130"/>
      <point x="68" y="111"/>
      <point x="68" y="59" type="curve" smooth="yes"/>
      <point x="68" y="7"/>
      <point x="98" y="-14"/>
    </contour>
  </outline>
</glyph>
<glyph name="uni1C7A" format="2">
  <advance width="273.01639"/>
  <unicode hex="1C7A"/>
  <outline>
    <contour>
      <point x="136" y="405" type="curve" smooth="yes"/>
      <point x="173" y="405"/>
      <point x="205" y="427"/>
      <point x="205" y="478" type="curve" smooth="yes"/>
      <point x="205" y="531"/>
      <point x="173" y="550"/>
      <point x="136" y="550" type="curve" smooth="yes"/>
      <point x="98" y="550"/>
      <point x="68" y="531"/>
      <point x="68" y="478" type="curve" smooth="yes"/>
      <point x="68" y="427"/>
      <point x="98" y="405"/>
    </contour>
    <contour>
      <point x="136" y="-14" type="curve" smooth="yes"/>
      <point x="173" y="-14"/>
      <point x="205" y="7"/>
      <point x="205" y="59" type="curve" smooth="yes"/>
      <point x="205" y="111"/>
      <point x="173" y="130"/>
      <point x="136" y="130" type="curve" smooth="yes"/>
      <point x="98" y="130"/>
      <point x="68" y="111"/>
      <point x="68" y="59" type="curve" smooth="yes"/>
      <point x="68" y="7"/>
      <point x="98" y="-14"/>
    </contour>
  </outline>
</glyph>
<glyph name="uni1C7B" format="2">
  <advance width="529.5082"/>
  <unicode hex="1C7B"/>
  <outline>
    <contour>
      <point x="100" y="377" type="line"/>
      <point x="107" y="391"/>
      <point x="130" y="433"/>
      <point x="169" y="433" type="curve" smooth="yes"/>
      <point x="209" y="433"/>
      <point x="307" y="385"/>
      <point x="357" y="385" type="curve" smooth="yes"/>
      <point x="427" y="385"/>
      <point x="469" y="458"/>
      <point x="476" y="488" type="curve"/>
      <point x="431" y="516" type="line"/>
      <point x="424" y="502"/>
      <point x="402" y="461"/>
      <point x="361" y="461" type="curve" smooth="yes"/>
      <point x="326" y="461"/>
      <point x="228" y="509"/>
      <point x="180" y="509" type="curve" smooth="yes"/>
      <point x="105" y="509"/>
      <point x="65" y="437"/>
      <point x="54" y="402" type="curve"/>
    </contour>
  </outline>
</glyph>
<glyph name="uni1C7C" format="2">
  <advance width="326"/>
  <unicode hex="1C7C"/>
  <outline>
    <contour>
      <point x="38" y="406" type="line"/>
      <point x="288" y="406" type="line"/>
      <point x="288" y="487" type="line"/>
      <point x="38" y="487" type="line"/>
    </contour>
  </outline>
</glyph>
<glyph name="uni1C7D" format="2">
  <advance width="549.22951"/>
  <unicode hex="1C7D"/>
  <outline>
    <contour>
      <point x="363" y="230" type="curve"/>
      <point x="402" y="308" type="line"/>
      <point x="307" y="343"/>
      <point x="206" y="442"/>
      <point x="206" y="545" type="curve" smooth="yes"/>
      <point x="206" y="608"/>
      <point x="235" y="636"/>
      <point x="271" y="636" type="curve" smooth="yes"/>
      <point x="347" y="636"/>
      <point x="398" y="496"/>
      <point x="398" y="407" type="curve" smooth="yes"/>
      <point x="398" y="203"/>
      <point x="260" y="118"/>
      <point x="170" y="94" type="curve"/>
      <point x="207" y="65" type="line"/>
      <point x="128" y="292" type="line"/>
      <point x="38" y="261" type="line"/>
      <point x="136" y="-12" type="line"/>
      <point x="255" y="0"/>
      <point x="504" y="108"/>
      <point x="504" y="404" type="curve" smooth="yes"/>
      <point x="504" y="596"/>
      <point x="398" y="726"/>
      <point x="271" y="726" type="curve" smooth="yes"/>
      <point x="184" y="726"/>
      <point x="100" y="673"/>
      <point x="100" y="548" type="curve" smooth="yes"/>
      <point x="100" y="402"/>
      <point x="241" y="282"/>
    </contour>
  </outline>
</glyph>
<glyph name="uni1C7E" format="2">
  <advance width="283.04918"/>
  <unicode hex="1C7E"/>
  <outline>
    <contour>
      <point x="100" y="83" type="line"/>
      <point x="183" y="83" type="line"/>
      <point x="183" y="510" type="line"/>
      <point x="100" y="510" type="line"/>
    </contour>
  </outline>
</glyph>
<glyph name="uni1C7F" format="2">
  <advance width="515.16393"/>
  <unicode hex="1C7F"/>
  <outline>
    <contour>
      <point x="100" y="83" type="line"/>
      <point x="183" y="83" type="line"/>
      <point x="183" y="510" type="line"/>
      <point x="100" y="510" type="line"/>
    </contour>
    <contour>
      <point x="332" y="83" type="line"/>
      <point x="415" y="83" type="line"/>
      <point x="415" y="510" type="line"/>
      <point x="332" y="510" type="line"/>
    </contour>
  </outline>
</glyph>
<glyph name="uni20B9" format="2">
  <advance width="551"/>
  <unicode hex="20B9"/>
  <outline>
    <contour>
      <point x="498" y="631" type="line"/>
      <point x="498" y="726" type="line"/>
      <point x="68" y="726" type="line"/>
      <point x="68" y="631" type="line"/>
      <point x="135" y="631" type="line" smooth="yes"/>
      <point x="186" y="631"/>
      <point x="213" y="631"/>
      <point x="234" y="612" type="curve" smooth="yes"/>
      <point x="258" y="592"/>
      <point x="272" y="562"/>
      <point x="272" y="507" type="curve" smooth="yes"/>
      <point x="272" y="460"/>
      <point x="262" y="425"/>
      <point x="240" y="402" type="curve" smooth="yes"/>
      <point x="219" y="378"/>
      <point x="189" y="366"/>
      <point x="123" y="366" type="curve" smooth="yes"/>
      <point x="78" y="366" type="line"/>
      <point x="68" y="282" type="line"/>
      <point x="283" y="-11" type="line"/>
      <point x="402" y="-11" type="line"/>
      <point x="163" y="317" type="line"/>
      <point x="148" y="266" type="line"/>
      <point x="302" y="280"/>
      <point x="360" y="373"/>
      <point x="360" y="509" type="curve" smooth="yes"/>
      <point x="360" y="566"/>
      <point x="359" y="582"/>
      <point x="328" y="631" type="curve"/>
    </contour>
    <contour>
      <point x="68" y="551" type="line"/>
      <point x="68" y="451" type="line"/>
      <point x="498" y="451" type="line"/>
      <point x="498" y="551" type="line"/>
    </contour>
  </outline>
</glyph>
<glyph name="uniA6A0" format="2">
  <advance width="680.95082"/>
  <unicode hex="A6A0"/>
  <outline>
    <contour>
      <point x="270" y="-11" type="curve" smooth="yes"/>
      <point x="434" y="-11"/>
      <point x="498" y="110"/>
      <point x="498" y="295" type="curve" smooth="yes"/>
      <point x="498" y="397"/>
      <point x="487" y="488"/>
      <point x="445" y="599" type="curve"/>
      <point x="468" y="570"/>
      <point x="495" y="534"/>
      <point x="515" y="514" type="curve" smooth="yes"/>
      <point x="608" y="422" type="line"/>
      <point x="672" y="490" type="line"/>
      <point x="446" y="714" type="line"/>
      <point x="315" y="714" type="line"/>
      <point x="363" y="573"/>
      <point x="389" y="428"/>
      <point x="389" y="286" type="curve" smooth="yes"/>
      <point x="389" y="145"/>
      <point x="354" y="76"/>
      <point x="272" y="76" type="curve" smooth="yes"/>
      <point x="204" y="76"/>
      <point x="166" y="135"/>
      <point x="166" y="233" type="curve" smooth="yes"/>
      <point x="166" y="262"/>
      <point x="170" y="300"/>
      <point x="176" y="335" type="curve"/>
      <point x="71" y="335" type="line"/>
      <point x="62" y="304"/>
      <point x="57" y="265"/>
      <point x="57" y="226" type="curve" smooth="yes"/>
      <point x="57" y="87"/>
      <point x="124" y="-11"/>
    </contour>
  </outline>
</glyph>
<glyph name="uniA6A1" format="2">
  <advance width="782.7541"/>
  <unicode hex="A6A1"/>
  <outline>
    <contour>
      <point x="96" y="0" type="line"/>
      <point x="222" y="0" type="line"/>
      <point x="593" y="577" type="line"/>
      <point x="597" y="577" type="line"/>
      <point x="595" y="536"/>
      <point x="589" y="444"/>
      <point x="589" y="373" type="curve" smooth="yes"/>
      <point x="589" y="0" type="line"/>
      <point x="689" y="0" type="line"/>
      <point x="689" y="714" type="line"/>
      <point x="561" y="714" type="line"/>
      <point x="191" y="138" type="line"/>
      <point x="187" y="138" type="line"/>
      <point x="191" y="180"/>
      <point x="195" y="271"/>
      <point x="195" y="339" type="curve" smooth="yes"/>
      <point x="195" y="714" type="line"/>
      <point x="96" y="714" type="line"/>
    </contour>
  </outline>
</glyph>
<glyph name="uniA6A2" format="2">
  <advance width="552.19672"/>
  <unicode hex="A6A2"/>
  <outline>
    <contour>
      <point x="123" y="637" type="line"/>
      <point x="428" y="637" type="line"/>
      <point x="428" y="714" type="line"/>
      <point x="123" y="714" type="line"/>
    </contour>
    <contour>
      <point x="123" y="514" type="line"/>
      <point x="428" y="514" type="line"/>
      <point x="428" y="591" type="line"/>
      <point x="123" y="591" type="line"/>
    </contour>
    <contour>
      <point x="274" y="-11" type="curve" smooth="yes"/>
      <point x="412" y="-11"/>
      <point x="499" y="78"/>
      <point x="499" y="232" type="curve" smooth="yes"/>
      <point x="499" y="385"/>
      <point x="408" y="473"/>
      <point x="277" y="473" type="curve" smooth="yes"/>
      <point x="140" y="473"/>
      <point x="53" y="385"/>
      <point x="53" y="232" type="curve" smooth="yes"/>
      <point x="53" y="78"/>
      <point x="145" y="-11"/>
    </contour>
    <contour>
      <point x="276" y="77" type="curve" smooth="yes"/>
      <point x="197" y="77"/>
      <point x="162" y="135"/>
      <point x="162" y="232" type="curve" smooth="yes"/>
      <point x="162" y="328"/>
      <point x="196" y="385"/>
      <point x="275" y="385" type="curve" smooth="yes"/>
      <point x="356" y="385"/>
      <point x="391" y="328"/>
      <point x="391" y="232" type="curve" smooth="yes"/>
      <point x="391" y="135"/>
      <point x="355" y="77"/>
    </contour>
  </outline>
</glyph>
<glyph name="uniA6A3" format="2">
  <advance width="664.85246"/>
  <unicode hex="A6A3"/>
  <outline>
    <contour>
      <point x="508" y="714" type="line"/>
      <point x="442" y="596" type="line"/>
      <point x="382" y="668"/>
      <point x="290" y="725"/>
      <point x="207" y="725" type="curve" smooth="yes"/>
      <point x="125" y="725"/>
      <point x="67" y="674"/>
      <point x="67" y="585" type="curve" smooth="yes"/>
      <point x="67" y="465"/>
      <point x="182" y="355"/>
      <point x="285" y="310" type="curve"/>
      <point x="112" y="0" type="line"/>
      <point x="231" y="0" type="line"/>
      <point x="627" y="714" type="line"/>
    </contour>
    <contour>
      <point x="170" y="582" type="curve" smooth="yes"/>
      <point x="170" y="609"/>
      <point x="188" y="627"/>
      <point x="214" y="627" type="curve" smooth="yes"/>
      <point x="259" y="627"/>
      <point x="341" y="563"/>
      <point x="389" y="497" type="curve"/>
      <point x="333" y="398" type="line"/>
      <point x="258" y="430"/>
      <point x="170" y="525"/>
    </contour>
    <component base="_dot" xScale="1.1442" yScale="1.1442" xOffset="256" yOffset="-114"/>
  </outline>
</glyph>
<glyph name="uniA6A4" format="2">
  <advance width="717.62295"/>
  <unicode hex="A6A4"/>
  <outline>
    <contour>
      <point x="548" y="399" type="curve" smooth="yes"/>
      <point x="450" y="399"/>
      <point x="386" y="327"/>
      <point x="386" y="202" type="curve" smooth="yes"/>
      <point x="386" y="194" type="line"/>
      <point x="489" y="194" type="line"/>
      <point x="489" y="210" type="line" smooth="yes"/>
      <point x="489" y="280"/>
      <point x="512" y="310"/>
      <point x="551" y="310" type="curve" smooth="yes"/>
      <point x="588" y="310"/>
      <point x="615" y="272"/>
      <point x="615" y="213" type="curve" smooth="yes"/>
      <point x="615" y="134"/>
      <point x="576" y="79"/>
      <point x="485" y="79" type="curve" smooth="yes"/>
      <point x="397" y="79"/>
      <point x="322" y="137"/>
      <point x="322" y="238" type="curve" smooth="yes"/>
      <point x="322" y="247"/>
      <point x="322" y="287"/>
      <point x="328" y="346" type="curve" smooth="yes"/>
      <point x="348" y="536" type="line"/>
      <point x="240" y="536" type="line"/>
      <point x="213" y="285" type="line" smooth="yes"/>
      <point x="199" y="157"/>
      <point x="150" y="94"/>
      <point x="49" y="94" type="curve" smooth="yes"/>
      <point x="5" y="94" type="line"/>
      <point x="5" y="0" type="line"/>
      <point x="47" y="0" type="line" smooth="yes"/>
      <point x="139" y="0"/>
      <point x="223" y="29"/>
      <point x="264" y="99" type="curve"/>
      <point x="310" y="35"/>
      <point x="385" y="-10"/>
      <point x="491" y="-10" type="curve" smooth="yes"/>
      <point x="622" y="-10"/>
      <point x="722" y="63"/>
      <point x="722" y="206" type="curve" smooth="yes"/>
      <point x="722" y="302"/>
      <point x="676" y="399"/>
    </contour>
    <component base="_dot" xOffset="40" yOffset="262"/>
  </outline>
</glyph>
<glyph name="uniA6A5" format="2">
  <advance width="617"/>
  <unicode hex="A6A5"/>
  <outline>
    <contour>
      <point x="85" y="180" type="line"/>
      <point x="574" y="180" type="line"/>
      <point x="574" y="273" type="line"/>
      <point x="193" y="273" type="line"/>
      <point x="193" y="714" type="line"/>
      <point x="85" y="714" type="line"/>
    </contour>
    <component base="_dot" xOffset="70" yOffset="-100"/>
    <component base="_dot" xOffset="71" yOffset="-236"/>
  </outline>
</glyph>
<glyph name="uniA6A6" format="2">
  <advance width="585.08197"/>
  <unicode hex="A6A6"/>
  <outline>
    <contour>
      <point x="77" y="195" type="line"/>
      <point x="298" y="195" type="line" smooth="yes"/>
      <point x="480" y="195"/>
      <point x="542" y="270"/>
      <point x="542" y="357" type="curve" smooth="yes"/>
      <point x="542" y="454"/>
      <point x="478" y="520"/>
      <point x="298" y="520" type="curve" smooth="yes"/>
      <point x="77" y="520" type="line"/>
      <point x="77" y="427" type="line"/>
      <point x="298" y="427" type="line" smooth="yes"/>
      <point x="399" y="427"/>
      <point x="433" y="405"/>
      <point x="433" y="357" type="curve" smooth="yes"/>
      <point x="433" y="309"/>
      <point x="394" y="288"/>
      <point x="298" y="288" type="curve" smooth="yes"/>
      <point x="77" y="288" type="line"/>
    </contour>
    <component base="_dot" xOffset="-30" yOffset="-337"/>
    <component base="_dot" xOffset="-30" yOffset="261"/>
  </outline>
</glyph>
<glyph name="uniA6A7" format="2">
  <advance width="616.32787"/>
  <unicode hex="A6A7"/>
  <outline>
    <contour>
      <point x="358" y="383" type="line"/>
      <point x="419" y="479"/>
      <point x="486" y="575"/>
      <point x="553" y="657" type="curve"/>
      <point x="553" y="714" type="line"/>
      <point x="73" y="714" type="line"/>
      <point x="73" y="622" type="line"/>
      <point x="406" y="622" type="line"/>
      <point x="264" y="432"/>
      <point x="152" y="248"/>
      <point x="15" y="0" type="curve"/>
      <point x="134" y="0" type="line"/>
      <point x="189" y="101"/>
      <point x="245" y="200"/>
      <point x="301" y="292" type="curve"/>
      <point x="316" y="262"/>
      <point x="330" y="240"/>
      <point x="352" y="206" type="curve" smooth="yes"/>
      <point x="489" y="0" type="line"/>
      <point x="615" y="0" type="line"/>
    </contour>
  </outline>
</glyph>
<glyph name="uniA6A8" format="2">
  <advance width="555.01639"/>
  <unicode hex="A6A8"/>
  <outline>
    <contour>
      <point x="495" y="714" type="line"/>
      <point x="18" y="714" type="line"/>
      <point x="18" y="622" type="line"/>
      <point x="383" y="622" type="line"/>
      <point x="349" y="464"/>
      <point x="332" y="312"/>
      <point x="332" y="136" type="curve" smooth="yes"/>
      <point x="332" y="92"/>
      <point x="333" y="47"/>
      <point x="335" y="0" type="curve"/>
      <point x="442" y="0" type="line"/>
      <point x="437" y="63"/>
      <point x="434" y="123"/>
      <point x="434" y="181" type="curve" smooth="yes"/>
      <point x="434" y="352"/>
      <point x="457" y="514"/>
      <point x="495" y="657" type="curve"/>
    </contour>
  </outline>
</glyph>
<glyph name="uniA6A9" format="2">
  <advance width="725"/>
  <unicode hex="A6A9"/>
  <outline>
    <contour>
      <point x="361" y="168" type="curve" smooth="yes"/>
      <point x="545" y="168"/>
      <point x="676" y="276"/>
      <point x="676" y="467" type="curve" smooth="yes"/>
      <point x="676" y="628"/>
      <point x="603" y="725"/>
      <point x="478" y="725" type="curve" smooth="yes"/>
      <point x="383" y="725"/>
      <point x="298" y="668"/>
      <point x="298" y="516" type="curve" smooth="yes"/>
      <point x="298" y="458"/>
      <point x="306" y="420"/>
      <point x="315" y="388" type="curve"/>
      <point x="420" y="388" type="line"/>
      <point x="410" y="422"/>
      <point x="402" y="469"/>
      <point x="402" y="515" type="curve" smooth="yes"/>
      <point x="402" y="608"/>
      <point x="442" y="636"/>
      <point x="482" y="636" type="curve" smooth="yes"/>
      <point x="535" y="636"/>
      <point x="569" y="574"/>
      <point x="569" y="472" type="curve" smooth="yes"/>
      <point x="569" y="352"/>
      <point x="513" y="256"/>
      <point x="357" y="256" type="curve" smooth="yes"/>
      <point x="217" y="256"/>
      <point x="155" y="348"/>
      <point x="155" y="461" type="curve" smooth="yes"/>
      <point x="155" y="549"/>
      <point x="188" y="607"/>
      <point x="237" y="669" type="curve"/>
      <point x="156" y="724" type="line"/>
      <point x="92" y="652"/>
      <point x="49" y="569"/>
      <point x="49" y="464" type="curve" smooth="yes"/>
      <point x="49" y="276"/>
      <point x="177" y="168"/>
    </contour>
    <component base="_dot" xOffset="104" yOffset="-336"/>
  </outline>
</glyph>
<glyph name="uniA6AA" format="2">
  <advance width="661.36066"/>
  <unicode hex="A6AA"/>
  <outline>
    <contour>
      <point x="429" y="725" type="curve" smooth="yes"/>
      <point x="307" y="725"/>
      <point x="232" y="650"/>
      <point x="232" y="493" type="curve" smooth="yes"/>
      <point x="232" y="469" type="line"/>
      <point x="171" y="484"/>
      <point x="113" y="509"/>
      <point x="57" y="538" type="curve"/>
      <point x="18" y="452" type="line"/>
      <point x="66" y="419"/>
      <point x="149" y="389"/>
      <point x="232" y="372" type="curve"/>
      <point x="232" y="0" type="line"/>
      <point x="339" y="0" type="line"/>
      <point x="339" y="358" type="line"/>
      <point x="357" y="356"/>
      <point x="377" y="356"/>
      <point x="396" y="356" type="curve" smooth="yes"/>
      <point x="536" y="356"/>
      <point x="621" y="434"/>
      <point x="621" y="547" type="curve" smooth="yes"/>
      <point x="621" y="652"/>
      <point x="552" y="725"/>
    </contour>
    <contour>
      <point x="391" y="448" type="curve" smooth="yes"/>
      <point x="373" y="448"/>
      <point x="355" y="449"/>
      <point x="339" y="450" type="curve"/>
      <point x="339" y="487" type="line" smooth="yes"/>
      <point x="339" y="604"/>
      <point x="378" y="633"/>
      <point x="428" y="633" type="curve" smooth="yes"/>
      <point x="487" y="633"/>
      <point x="514" y="593"/>
      <point x="514" y="548" type="curve" smooth="yes"/>
      <point x="514" y="486"/>
      <point x="472" y="448"/>
    </contour>
    <component base="_dot" xOffset="200" yOffset="-145"/>
    <component base="_dot" xOffset="200" yOffset="-307"/>
  </outline>
</glyph>
<glyph name="uniA6AB" format="2">
  <advance width="613.57377"/>
  <unicode hex="A6AB"/>
  <outline>
    <contour>
      <point x="256" y="0" type="line"/>
      <point x="366" y="0" type="line"/>
      <point x="466" y="716" type="line"/>
      <point x="365" y="714" type="line"/>
      <point x="35" y="506" type="line"/>
      <point x="89" y="418" type="line"/>
      <point x="230" y="508" type="line" smooth="yes"/>
      <point x="279" y="539"/>
      <point x="318" y="562"/>
      <point x="352" y="596" type="curve"/>
      <point x="341" y="549"/>
      <point x="331" y="501"/>
      <point x="323" y="444" type="curve" smooth="yes"/>
    </contour>
    <component base="_dot" xOffset="-62" yOffset="-39"/>
    <component base="_dot" xOffset="273" yOffset="127"/>
  </outline>
</glyph>
<glyph name="uniA6AC" format="2">
  <advance width="676.93443"/>
  <unicode hex="A6AC"/>
  <outline>
    <contour>
      <point x="180" y="0" type="line"/>
      <point x="288" y="0" type="line"/>
      <point x="266" y="158" type="line" smooth="yes"/>
      <point x="256" y="230"/>
      <point x="244" y="318"/>
      <point x="244" y="386" type="curve" smooth="yes"/>
      <point x="244" y="526"/>
      <point x="312" y="583"/>
      <point x="402" y="583" type="curve" smooth="yes"/>
      <point x="494" y="583"/>
      <point x="533" y="526"/>
      <point x="533" y="449" type="curve" smooth="yes"/>
      <point x="533" y="385"/>
      <point x="506" y="348"/>
      <point x="469" y="348" type="curve" smooth="yes"/>
      <point x="430" y="348"/>
      <point x="408" y="378"/>
      <point x="408" y="439" type="curve" smooth="yes"/>
      <point x="408" y="451"/>
      <point x="409" y="459"/>
      <point x="410" y="468" type="curve"/>
      <point x="309" y="468" type="line"/>
      <point x="307" y="458"/>
      <point x="306" y="445"/>
      <point x="306" y="432" type="curve" smooth="yes"/>
      <point x="306" y="309"/>
      <point x="380" y="259"/>
      <point x="465" y="259" type="curve" smooth="yes"/>
      <point x="585" y="259"/>
      <point x="639" y="352"/>
      <point x="639" y="454" type="curve" smooth="yes"/>
      <point x="639" y="596"/>
      <point x="536" y="671"/>
      <point x="408" y="671" type="curve" smooth="yes"/>
      <point x="262" y="671"/>
      <point x="137" y="584"/>
      <point x="137" y="385" type="curve" smooth="yes"/>
      <point x="137" y="301"/>
      <point x="148" y="216"/>
      <point x="161" y="129" type="curve" smooth="yes"/>
    </contour>
    <component base="_dot" xOffset="-139" yOffset="261"/>
  </outline>
</glyph>
<glyph name="uniA6AD" format="2">
  <advance width="585.27869"/>
  <unicode hex="A6AD"/>
  <outline>
    <contour>
      <point x="37" y="0" type="line"/>
      <point x="490" y="0" type="line"/>
      <point x="490" y="714" type="line"/>
      <point x="382" y="714" type="line"/>
      <point x="382" y="500" type="line"/>
      <point x="49" y="500" type="line"/>
      <point x="49" y="417" type="line"/>
      <point x="176" y="267" type="line"/>
      <point x="37" y="90" type="line"/>
    </contour>
    <contour>
      <point x="149" y="92" type="curve"/>
      <point x="289" y="268" type="line"/>
      <point x="170" y="407" type="line"/>
      <point x="192" y="406"/>
      <point x="235" y="406"/>
      <point x="263" y="406" type="curve" smooth="yes"/>
      <point x="382" y="406" type="line"/>
      <point x="382" y="93" type="line"/>
      <point x="292" y="93" type="line" smooth="yes"/>
      <point x="248" y="93"/>
      <point x="197" y="92"/>
    </contour>
  </outline>
</glyph>
<glyph name="uniA6AE" format="2">
  <advance width="564.34426"/>
  <unicode hex="A6AE"/>
  <outline>
    <contour>
      <point x="95" y="0" type="line"/>
      <point x="203" y="0" type="line"/>
      <point x="203" y="195" type="line"/>
      <point x="277" y="195" type="line" smooth="yes"/>
      <point x="460" y="195"/>
      <point x="522" y="270"/>
      <point x="522" y="357" type="curve" smooth="yes"/>
      <point x="522" y="454"/>
      <point x="457" y="520"/>
      <point x="277" y="520" type="curve" smooth="yes"/>
      <point x="203" y="520" type="line"/>
      <point x="203" y="714" type="line"/>
      <point x="95" y="714" type="line"/>
      <point x="95" y="427" type="line"/>
      <point x="277" y="427" type="line" smooth="yes"/>
      <point x="378" y="427"/>
      <point x="413" y="405"/>
      <point x="413" y="357" type="curve" smooth="yes"/>
      <point x="413" y="309"/>
      <point x="373" y="288"/>
      <point x="277" y="288" type="curve" smooth="yes"/>
      <point x="95" y="288" type="line"/>
    </contour>
    <component base="_dot" xOffset="70" yOffset="261"/>
    <component base="_dot" xOffset="70" yOffset="-337"/>
  </outline>
</glyph>
<glyph name="uniA6AF" format="2">
  <advance width="589.37705"/>
  <unicode hex="A6AF"/>
  <outline>
    <contour>
      <point x="123" y="438" type="line"/>
      <point x="499" y="620" type="line"/>
      <point x="499" y="726" type="line"/>
      <point x="123" y="544" type="line"/>
    </contour>
    <contour>
      <point x="123" y="0" type="line"/>
      <point x="231" y="0" type="line"/>
      <point x="231" y="182" type="line" smooth="yes"/>
      <point x="231" y="238"/>
      <point x="231" y="279"/>
      <point x="226" y="320" type="curve"/>
      <point x="252" y="290"/>
      <point x="273" y="266"/>
      <point x="313" y="233" type="curve" smooth="yes"/>
      <point x="434" y="128" type="line"/>
      <point x="502" y="202" type="line"/>
      <point x="234" y="435" type="line"/>
      <point x="123" y="382" type="line"/>
    </contour>
    <component base="_dot" xOffset="128" yOffset="47"/>
  </outline>
</glyph>
<glyph name="uniA6B0" format="2">
  <advance width="650.57377"/>
  <unicode hex="A6B0"/>
  <outline>
    <contour>
      <point x="95" y="0" type="line"/>
      <point x="203" y="0" type="line"/>
      <point x="203" y="265" type="line"/>
      <point x="612" y="439" type="line"/>
      <point x="612" y="534" type="line"/>
      <point x="188" y="714" type="line"/>
      <point x="95" y="714" type="line"/>
    </contour>
    <contour>
      <point x="203" y="372" type="line"/>
      <point x="203" y="601" type="line"/>
      <point x="380" y="528" type="line" smooth="yes"/>
      <point x="432" y="507"/>
      <point x="460" y="498"/>
      <point x="500" y="488" type="curve"/>
      <point x="500" y="486" type="line"/>
      <point x="456" y="473"/>
      <point x="414" y="459"/>
      <point x="369" y="441" type="curve" smooth="yes"/>
    </contour>
  </outline>
</glyph>
<glyph name="uniA6B1" format="2">
  <advance width="560.03279"/>
  <unicode hex="A6B1"/>
  <outline>
    <contour>
      <point x="95" y="0" type="line"/>
      <point x="203" y="0" type="line"/>
      <point x="203" y="326" type="line"/>
      <point x="513" y="326" type="line"/>
      <point x="513" y="419" type="line"/>
      <point x="203" y="419" type="line"/>
      <point x="203" y="714" type="line"/>
      <point x="95" y="714" type="line"/>
    </contour>
  </outline>
</glyph>
<glyph name="uniA6B2" format="2">
  <advance width="583.11475"/>
  <unicode hex="A6B2"/>
  <outline>
    <contour>
      <point x="238" y="0" type="line"/>
      <point x="345" y="0" type="line"/>
      <point x="345" y="277" type="line"/>
      <point x="583" y="714" type="line"/>
      <point x="467" y="714" type="line"/>
      <point x="292" y="380" type="line"/>
      <point x="117" y="714" type="line"/>
      <point x="0" y="714" type="line"/>
      <point x="238" y="273" type="line"/>
    </contour>
    <component base="_dot" xOffset="28" yOffset="264"/>
  </outline>
</glyph>
<glyph name="uniA6B3" format="2">
  <advance width="537.86885"/>
  <unicode hex="A6B3"/>
  <outline>
    <contour>
      <point x="95" y="0" type="line"/>
      <point x="511" y="0" type="line"/>
      <point x="511" y="92" type="line"/>
      <point x="203" y="92" type="line"/>
      <point x="203" y="714" type="line"/>
      <point x="95" y="714" type="line"/>
    </contour>
    <contour>
      <point x="301" y="180" type="line"/>
      <point x="409" y="180" type="line"/>
      <point x="409" y="714" type="line"/>
      <point x="301" y="714" type="line"/>
    </contour>
  </outline>
</glyph>
<glyph name="uniA6B4" format="2">
  <advance width="704.86885"/>
  <unicode hex="A6B4"/>
  <outline>
    <contour>
      <point x="203" y="0" type="line"/>
      <point x="308" y="0" type="line"/>
      <point x="389" y="306" type="line"/>
      <point x="671" y="306" type="line"/>
      <point x="671" y="399" type="line"/>
      <point x="413" y="399" type="line"/>
      <point x="497" y="714" type="line"/>
      <point x="387" y="714" type="line"/>
      <point x="289" y="326" type="line" smooth="yes"/>
      <point x="274" y="263"/>
      <point x="260" y="209"/>
      <point x="255" y="161" type="curve"/>
      <point x="249" y="209"/>
      <point x="236" y="260"/>
      <point x="221" y="320" type="curve" smooth="yes"/>
      <point x="124" y="714" type="line"/>
      <point x="14" y="714" type="line"/>
    </contour>
    <component base="_dot" xOffset="291" yOffset="-195"/>
    <component base="_dot" xOffset="291" yOffset="111"/>
  </outline>
</glyph>
<glyph name="uniA6B5" format="2">
  <advance width="597.7377"/>
  <unicode hex="A6B5"/>
  <outline>
    <contour>
      <point x="245" y="0" type="line"/>
      <point x="353" y="0" type="line"/>
      <point x="353" y="251" type="line"/>
      <point x="465" y="268"/>
      <point x="521" y="346"/>
      <point x="521" y="453" type="curve" smooth="yes"/>
      <point x="521" y="714" type="line"/>
      <point x="414" y="714" type="line"/>
      <point x="414" y="468" type="line" smooth="yes"/>
      <point x="414" y="380"/>
      <point x="380" y="336"/>
      <point x="298" y="336" type="curve" smooth="yes"/>
      <point x="220" y="336"/>
      <point x="183" y="388"/>
      <point x="183" y="468" type="curve" smooth="yes"/>
      <point x="183" y="714" type="line"/>
      <point x="76" y="714" type="line"/>
      <point x="76" y="453" type="line" smooth="yes"/>
      <point x="76" y="337"/>
      <point x="139" y="265"/>
      <point x="245" y="250" type="curve"/>
    </contour>
  </outline>
</glyph>
<glyph name="uniA6B6" format="2">
  <advance width="751.32787"/>
  <unicode hex="A6B6"/>
  <outline>
    <contour>
      <point x="95" y="0" type="line"/>
      <point x="564" y="0" type="line"/>
      <point x="564" y="714" type="line"/>
      <point x="457" y="714" type="line"/>
      <point x="457" y="93" type="line"/>
      <point x="203" y="93" type="line"/>
      <point x="203" y="714" type="line"/>
      <point x="95" y="714" type="line"/>
    </contour>
    <component base="_dot" xOffset="412" yOffset="-171"/>
    <component base="_dot" xOffset="412" yOffset="84"/>
  </outline>
</glyph>
<glyph name="uniA6B7" format="2">
  <advance width="726.62295"/>
  <unicode hex="A6B7"/>
  <outline>
    <contour>
      <point x="547" y="420" type="curve"/>
      <point x="547" y="582" type="line"/>
      <point x="522" y="656" type="line"/>
      <point x="274" y="570" type="line"/>
      <point x="255" y="714" type="line"/>
      <point x="144" y="714" type="line"/>
      <point x="170" y="533" type="line"/>
      <point x="24" y="483" type="line"/>
      <point x="54" y="397" type="line"/>
      <point x="182" y="441" type="line"/>
      <point x="245" y="0" type="line"/>
      <point x="356" y="0" type="line"/>
      <point x="288" y="478" type="line"/>
      <point x="445" y="533" type="line"/>
      <point x="445" y="346" type="line"/>
      <point x="502" y="307" type="line"/>
      <point x="562" y="354"/>
      <point x="607" y="377"/>
      <point x="687" y="386" type="curve"/>
      <point x="687" y="495" type="line"/>
      <point x="638" y="486"/>
      <point x="589" y="463"/>
    </contour>
    <component base="_dot" xOffset="158" yOffset="-162"/>
    <component base="_dot" xOffset="371" yOffset="263"/>
  </outline>
</glyph>
<glyph name="uniA6B8" format="2">
  <advance width="789.37705"/>
  <unicode hex="A6B8"/>
  <outline>
    <contour>
      <point x="344" y="191" type="curve" smooth="yes"/>
      <point x="416" y="191"/>
      <point x="469" y="213"/>
      <point x="500" y="226" type="curve"/>
      <point x="478" y="318" type="line"/>
      <point x="448" y="305"/>
      <point x="411" y="285"/>
      <point x="348" y="285" type="curve" smooth="yes"/>
      <point x="224" y="285"/>
      <point x="173" y="364"/>
      <point x="173" y="452" type="curve" smooth="yes"/>
      <point x="173" y="572"/>
      <point x="284" y="631"/>
      <point x="399" y="631" type="curve"/>
      <point x="376" y="725" type="line"/>
      <point x="206" y="721"/>
      <point x="65" y="623"/>
      <point x="65" y="445" type="curve" smooth="yes"/>
      <point x="65" y="310"/>
      <point x="146" y="191"/>
    </contour>
    <contour>
      <point x="414" y="-12" type="line"/>
      <point x="583" y="-9"/>
      <point x="724" y="90"/>
      <point x="724" y="268" type="curve" smooth="yes"/>
      <point x="724" y="403"/>
      <point x="644" y="522"/>
      <point x="446" y="522" type="curve" smooth="yes"/>
      <point x="373" y="522"/>
      <point x="320" y="500"/>
      <point x="289" y="487" type="curve"/>
      <point x="312" y="395" type="line"/>
      <point x="342" y="408"/>
      <point x="379" y="427"/>
      <point x="441" y="427" type="curve" smooth="yes"/>
      <point x="565" y="427"/>
      <point x="616" y="349"/>
      <point x="616" y="261" type="curve" smooth="yes"/>
      <point x="616" y="141"/>
      <point x="505" y="81"/>
      <point x="390" y="81" type="curve"/>
    </contour>
  </outline>
</glyph>
<glyph name="uniA6B9" format="2">
  <advance width="489.14754"/>
  <unicode hex="A6B9"/>
  <outline>
    <contour>
      <point x="466" y="431" type="line"/>
      <point x="466" y="542" type="line"/>
      <point x="95" y="726" type="line"/>
      <point x="95" y="616" type="line"/>
    </contour>
    <contour>
      <point x="95" y="0" type="line"/>
      <point x="203" y="0" type="line"/>
      <point x="203" y="531" type="line"/>
      <point x="95" y="531" type="line"/>
    </contour>
  </outline>
</glyph>
<glyph name="uniA6BA" format="2">
  <advance width="630.44262"/>
  <unicode hex="A6BA"/>
  <outline>
    <contour>
      <point x="106" y="-10" type="line"/>
      <point x="128" y="-10" type="line" smooth="yes"/>
      <point x="385" y="-10"/>
      <point x="515" y="135"/>
      <point x="515" y="358" type="curve" smooth="yes"/>
      <point x="515" y="583"/>
      <point x="388" y="725"/>
      <point x="147" y="725" type="curve" smooth="yes"/>
      <point x="106" y="725" type="line"/>
      <point x="106" y="632" type="line"/>
      <point x="149" y="632" type="line" smooth="yes"/>
      <point x="246" y="632"/>
      <point x="313" y="602"/>
      <point x="355" y="544" type="curve"/>
      <point x="184" y="520"/>
      <point x="106" y="455"/>
      <point x="106" y="357" type="curve" smooth="yes"/>
      <point x="106" y="259"/>
      <point x="183" y="193"/>
      <point x="354" y="169" type="curve"/>
      <point x="311" y="109"/>
      <point x="240" y="79"/>
      <point x="136" y="79" type="curve" smooth="yes"/>
      <point x="106" y="79" type="line"/>
    </contour>
    <contour>
      <point x="215" y="354" type="curve" smooth="yes"/>
      <point x="215" y="416"/>
      <point x="268" y="452"/>
      <point x="392" y="465" type="curve"/>
      <point x="400" y="434"/>
      <point x="404" y="398"/>
      <point x="404" y="358" type="curve" smooth="yes"/>
      <point x="404" y="317"/>
      <point x="400" y="281"/>
      <point x="392" y="249" type="curve"/>
      <point x="267" y="263"/>
      <point x="215" y="300"/>
    </contour>
    <component base="_dot" xOffset="308" yOffset="210"/>
  </outline>
</glyph>
<glyph name="uniA6BB" format="2">
  <advance width="626.85246"/>
  <unicode hex="A6BB"/>
  <outline>
    <contour>
      <point x="106" y="0" type="line"/>
      <point x="214" y="0" type="line"/>
      <point x="214" y="469" type="line"/>
      <point x="349" y="469" type="line"/>
      <point x="349" y="252" type="line"/>
      <point x="589" y="252" type="line"/>
      <point x="589" y="344" type="line"/>
      <point x="457" y="344" type="line"/>
      <point x="457" y="561" type="line"/>
      <point x="106" y="561" type="line"/>
    </contour>
    <component base="_dot" xOffset="-203" yOffset="261"/>
  </outline>
</glyph>
<glyph name="uniA6BC" format="2">
  <advance width="641.65574"/>
  <unicode hex="A6BC"/>
  <outline>
    <contour>
      <point x="66" y="112" type="line"/>
      <point x="609" y="303" type="line"/>
      <point x="609" y="418" type="line"/>
      <point x="66" y="610" type="line"/>
      <point x="66" y="502" type="line"/>
      <point x="351" y="403" type="line" smooth="yes"/>
      <point x="395" y="388"/>
      <point x="457" y="368"/>
      <point x="497" y="362" type="curve"/>
      <point x="497" y="358" type="line"/>
      <point x="457" y="353"/>
      <point x="396" y="335"/>
      <point x="351" y="320" type="curve" smooth="yes"/>
      <point x="66" y="221" type="line"/>
    </contour>
    <component base="_dot" xOffset="-44" yOffset="-347"/>
    <component base="_dot" xOffset="-44" yOffset="272"/>
  </outline>
</glyph>
<glyph name="uniA6BD" format="2">
  <advance width="610.62295"/>
  <unicode hex="A6BD"/>
  <outline>
    <contour>
      <point x="277" y="-10" type="curve" smooth="yes"/>
      <point x="452" y="-10"/>
      <point x="564" y="128"/>
      <point x="564" y="311" type="curve" smooth="yes"/>
      <point x="564" y="418"/>
      <point x="507" y="514"/>
      <point x="395" y="514" type="curve" smooth="yes"/>
      <point x="363" y="514"/>
      <point x="336" y="504"/>
      <point x="315" y="487" type="curve"/>
      <point x="333" y="523"/>
      <point x="340" y="541"/>
      <point x="350" y="563" type="curve" smooth="yes"/>
      <point x="414" y="714" type="line"/>
      <point x="303" y="714" type="line"/>
      <point x="174" y="410" type="line"/>
      <point x="268" y="371" type="line"/>
      <point x="286" y="406"/>
      <point x="319" y="424"/>
      <point x="357" y="424" type="curve" smooth="yes"/>
      <point x="422" y="424"/>
      <point x="455" y="382"/>
      <point x="455" y="316" type="curve" smooth="yes"/>
      <point x="455" y="173"/>
      <point x="375" y="79"/>
      <point x="284" y="79" type="curve" smooth="yes"/>
      <point x="214" y="79"/>
      <point x="159" y="124"/>
      <point x="159" y="209" type="curve" smooth="yes"/>
      <point x="159" y="262"/>
      <point x="170" y="288"/>
      <point x="176" y="301" type="curve"/>
      <point x="76" y="343" type="line"/>
      <point x="61" y="311"/>
      <point x="50" y="268"/>
      <point x="50" y="223" type="curve" smooth="yes"/>
      <point x="50" y="63"/>
      <point x="165" y="-10"/>
    </contour>
  </outline>
</glyph>
<glyph name="uniA6BE" format="2">
  <advance width="750.44262"/>
  <unicode hex="A6BE"/>
  <outline>
    <contour>
      <point x="321" y="0" type="line"/>
      <point x="429" y="0" type="line"/>
      <point x="429" y="326" type="line"/>
      <point x="548" y="326" type="line"/>
      <point x="548" y="0" type="line"/>
      <point x="656" y="0" type="line"/>
      <point x="656" y="419" type="line"/>
      <point x="429" y="419" type="line"/>
      <point x="429" y="714" type="line"/>
      <point x="321" y="714" type="line"/>
      <point x="321" y="419" type="line"/>
      <point x="203" y="419" type="line"/>
      <point x="203" y="714" type="line"/>
      <point x="95" y="714" type="line"/>
      <point x="95" y="326" type="line"/>
      <point x="321" y="326" type="line"/>
    </contour>
  </outline>
</glyph>
<glyph name="uniA6BF" format="2">
  <advance width="631.98361"/>
  <unicode hex="A6BF"/>
  <outline>
    <contour>
      <point x="302" y="725" type="curve" smooth="yes"/>
      <point x="181" y="725"/>
      <point x="82" y="650"/>
      <point x="82" y="534" type="curve" smooth="yes"/>
      <point x="82" y="481"/>
      <point x="105" y="437"/>
      <point x="130" y="416" type="curve"/>
      <point x="53" y="416" type="line"/>
      <point x="53" y="323" type="line"/>
      <point x="370" y="323" type="line"/>
      <point x="370" y="416" type="line"/>
      <point x="313" y="416" type="line" smooth="yes"/>
      <point x="221" y="416"/>
      <point x="192" y="477"/>
      <point x="192" y="524" type="curve" smooth="yes"/>
      <point x="192" y="590"/>
      <point x="238" y="637"/>
      <point x="306" y="637" type="curve" smooth="yes"/>
      <point x="408" y="637"/>
      <point x="444" y="535"/>
      <point x="444" y="393" type="curve" smooth="yes"/>
      <point x="444" y="265"/>
      <point x="419" y="124"/>
      <point x="388" y="0" type="curve"/>
      <point x="495" y="0" type="line"/>
      <point x="528" y="121"/>
      <point x="554" y="267"/>
      <point x="554" y="394" type="curve" smooth="yes"/>
      <point x="554" y="595"/>
      <point x="489" y="725"/>
    </contour>
  </outline>
</glyph>
<glyph name="uniA6C0" format="2">
  <advance width="630.5082"/>
  <unicode hex="A6C0"/>
  <outline>
    <contour>
      <point x="387" y="0" type="curve"/>
      <point x="494" y="0" type="line"/>
      <point x="527" y="121"/>
      <point x="552" y="267"/>
      <point x="552" y="394" type="curve" smooth="yes"/>
      <point x="552" y="595"/>
      <point x="488" y="725"/>
      <point x="306" y="725" type="curve" smooth="yes"/>
      <point x="175" y="725"/>
      <point x="78" y="640"/>
      <point x="78" y="467" type="curve" smooth="yes"/>
      <point x="78" y="323" type="line"/>
      <point x="373" y="323" type="line"/>
      <point x="373" y="416" type="line"/>
      <point x="188" y="416" type="line"/>
      <point x="188" y="463" type="line" smooth="yes"/>
      <point x="188" y="579"/>
      <point x="237" y="637"/>
      <point x="306" y="637" type="curve" smooth="yes"/>
      <point x="406" y="637"/>
      <point x="442" y="535"/>
      <point x="442" y="393" type="curve" smooth="yes"/>
      <point x="442" y="265"/>
      <point x="417" y="124"/>
    </contour>
  </outline>
</glyph>
<glyph name="uniA6C1" format="2">
  <advance width="630.5082"/>
  <unicode hex="A6C1"/>
  <outline>
    <contour>
      <point x="387" y="0" type="curve"/>
      <point x="494" y="0" type="line"/>
      <point x="527" y="121"/>
      <point x="552" y="267"/>
      <point x="552" y="394" type="curve" smooth="yes"/>
      <point x="552" y="595"/>
      <point x="488" y="725"/>
      <point x="306" y="725" type="curve" smooth="yes"/>
      <point x="175" y="725"/>
      <point x="78" y="640"/>
      <point x="78" y="467" type="curve" smooth="yes"/>
      <point x="78" y="418"/>
      <point x="85" y="380"/>
      <point x="100" y="334" type="curve"/>
      <point x="208" y="334" type="line"/>
      <point x="197" y="375"/>
      <point x="188" y="415"/>
      <point x="188" y="463" type="curve" smooth="yes"/>
      <point x="188" y="579"/>
      <point x="237" y="637"/>
      <point x="306" y="637" type="curve" smooth="yes"/>
      <point x="406" y="637"/>
      <point x="442" y="535"/>
      <point x="442" y="393" type="curve" smooth="yes"/>
      <point x="442" y="265"/>
      <point x="417" y="124"/>
    </contour>
  </outline>
</glyph>
<glyph name="uniA6C2" format="2">
  <advance width="533"/>
  <unicode hex="A6C2"/>
  <outline>
    <contour>
      <point x="224" y="515" type="line"/>
      <point x="502" y="628" type="line"/>
      <point x="502" y="726" type="line"/>
      <point x="224" y="613" type="line"/>
    </contour>
    <contour>
      <point x="72" y="0" type="line"/>
      <point x="179" y="0" type="line"/>
      <point x="179" y="714" type="line"/>
      <point x="72" y="714" type="line"/>
    </contour>
    <contour>
      <point x="224" y="342" type="line"/>
      <point x="502" y="456" type="line"/>
      <point x="502" y="554" type="line"/>
      <point x="224" y="440" type="line"/>
    </contour>
  </outline>
</glyph>
<glyph name="uniA6C3" format="2">
  <advance width="777.67213"/>
  <unicode hex="A6C3"/>
  <outline>
    <contour>
      <point x="156" y="0" type="line"/>
      <point x="272" y="0" type="line"/>
      <point x="326" y="218" type="line" smooth="yes"/>
      <point x="338" y="267"/>
      <point x="352" y="335"/>
      <point x="360" y="374" type="curve"/>
      <point x="364" y="374" type="line"/>
      <point x="372" y="334"/>
      <point x="387" y="265"/>
      <point x="398" y="217" type="curve" smooth="yes"/>
      <point x="451" y="0" type="line"/>
      <point x="567" y="0" type="line"/>
      <point x="617" y="286"/>
      <point x="667" y="482"/>
      <point x="774" y="577" type="curve"/>
      <point x="774" y="714" type="line"/>
      <point x="630" y="613"/>
      <point x="555" y="438"/>
      <point x="508" y="100" type="curve"/>
      <point x="505" y="100" type="line"/>
      <point x="500" y="139"/>
      <point x="486" y="213"/>
      <point x="474" y="262" type="curve" smooth="yes"/>
      <point x="421" y="469" type="line"/>
      <point x="306" y="469" type="line"/>
      <point x="253" y="254" type="line" smooth="yes"/>
      <point x="243" y="209"/>
      <point x="227" y="134"/>
      <point x="222" y="100" type="curve"/>
      <point x="218" y="100" type="line"/>
      <point x="214" y="137"/>
      <point x="200" y="208"/>
      <point x="185" y="264" type="curve" smooth="yes"/>
      <point x="133" y="469" type="line"/>
      <point x="26" y="469" type="line"/>
    </contour>
  </outline>
</glyph>
<glyph name="uniA6C4" format="2">
  <advance width="711.16393"/>
  <unicode hex="A6C4"/>
  <outline>
    <contour>
      <point x="95" y="0" type="line"/>
      <point x="202" y="0" type="line"/>
      <point x="202" y="355" type="line"/>
      <point x="557" y="219" type="line"/>
      <point x="633" y="219" type="line"/>
      <point x="633" y="681" type="line"/>
      <point x="563" y="681" type="line"/>
      <point x="202" y="542" type="line"/>
      <point x="202" y="714" type="line"/>
      <point x="95" y="714" type="line"/>
    </contour>
    <contour>
      <point x="526" y="331" type="line"/>
      <point x="463" y="358"/>
      <point x="399" y="381"/>
      <point x="336" y="404" type="curve" smooth="yes"/>
      <point x="289" y="422"/>
      <point x="234" y="439"/>
      <point x="197" y="446" type="curve"/>
      <point x="197" y="450" type="line"/>
      <point x="234" y="458"/>
      <point x="289" y="477"/>
      <point x="333" y="492" type="curve" smooth="yes"/>
      <point x="397" y="516"/>
      <point x="462" y="540"/>
      <point x="526" y="566" type="curve"/>
    </contour>
  </outline>
</glyph>
<glyph name="uniA6C5" format="2">
  <advance width="616.45902"/>
  <unicode hex="A6C5"/>
  <outline>
    <contour>
      <point x="95" y="-1" type="line"/>
      <point x="203" y="-1" type="line"/>
      <point x="203" y="265" type="line"/>
      <point x="342" y="342" type="line"/>
      <point x="342" y="160" type="line"/>
      <point x="450" y="160" type="line"/>
      <point x="450" y="714" type="line"/>
      <point x="342" y="714" type="line"/>
      <point x="342" y="444" type="line"/>
      <point x="203" y="367" type="line"/>
      <point x="203" y="553" type="line"/>
      <point x="95" y="553" type="line"/>
    </contour>
    <component base="_dot" xOffset="294" yOffset="109"/>
  </outline>
</glyph>
<glyph name="uniA6C6" format="2">
  <advance width="567.81967"/>
  <unicode hex="A6C6"/>
  <outline>
    <contour>
      <point x="365" y="0" type="curve"/>
      <point x="473" y="0" type="line"/>
      <point x="473" y="714" type="line"/>
      <point x="365" y="714" type="line"/>
      <point x="365" y="566" type="line" smooth="yes"/>
      <point x="365" y="541"/>
      <point x="366" y="514"/>
      <point x="367" y="482" type="curve"/>
      <point x="365" y="482" type="line"/>
      <point x="332" y="522"/>
      <point x="271" y="547"/>
      <point x="194" y="547" type="curve" smooth="yes"/>
      <point x="122" y="547"/>
      <point x="69" y="525"/>
      <point x="38" y="512" type="curve"/>
      <point x="60" y="420" type="line"/>
      <point x="90" y="433"/>
      <point x="127" y="452"/>
      <point x="190" y="452" type="curve" smooth="yes"/>
      <point x="314" y="452"/>
      <point x="365" y="374"/>
      <point x="365" y="286" type="curve" smooth="yes"/>
      <point x="365" y="168"/>
      <point x="256" y="107"/>
      <point x="139" y="107" type="curve"/>
      <point x="162" y="13" type="line"/>
      <point x="249" y="14"/>
      <point x="316" y="39"/>
      <point x="365" y="95" type="curve"/>
      <point x="367" y="95" type="line"/>
      <point x="366" y="60"/>
      <point x="365" y="34"/>
    </contour>
  </outline>
</glyph>
<glyph name="uniA6C7" format="2">
  <advance width="627.4918"/>
  <unicode hex="A6C7"/>
  <outline>
    <contour>
      <point x="586" y="76" type="line"/>
      <point x="586" y="194" type="line"/>
      <point x="141" y="425" type="line"/>
      <point x="141" y="429" type="line"/>
      <point x="521" y="607" type="line"/>
      <point x="521" y="720" type="line"/>
      <point x="36" y="482" type="line"/>
      <point x="36" y="369" type="line"/>
    </contour>
    <component base="_dot" xOffset="226" yOffset="35"/>
  </outline>
</glyph>
<glyph name="uniA6C8" format="2">
  <advance width="686.22951"/>
  <unicode hex="A6C8"/>
  <outline>
    <contour>
      <point x="77" y="337" type="line"/>
      <point x="184" y="337" type="line"/>
      <point x="184" y="450" type="line" smooth="yes"/>
      <point x="184" y="571"/>
      <point x="236" y="625"/>
      <point x="345" y="625" type="curve" smooth="yes"/>
      <point x="449" y="625"/>
      <point x="502" y="561"/>
      <point x="502" y="450" type="curve" smooth="yes"/>
      <point x="502" y="337" type="line"/>
      <point x="609" y="337" type="line"/>
      <point x="609" y="455" type="line" smooth="yes"/>
      <point x="609" y="632"/>
      <point x="508" y="714"/>
      <point x="348" y="714" type="curve" smooth="yes"/>
      <point x="167" y="714"/>
      <point x="77" y="615"/>
      <point x="77" y="455" type="curve" smooth="yes"/>
    </contour>
    <contour>
      <point x="289" y="0" type="line"/>
      <point x="397" y="0" type="line"/>
      <point x="397" y="499" type="line"/>
      <point x="289" y="499" type="line"/>
    </contour>
  </outline>
</glyph>
<glyph name="uniA6C9" format="2">
  <advance width="574.06557"/>
  <unicode hex="A6C9"/>
  <outline>
    <contour>
      <point x="34" y="0" type="line"/>
      <point x="539" y="0" type="line"/>
      <point x="539" y="93" type="line"/>
      <point x="164" y="93" type="line"/>
      <point x="530" y="637" type="line"/>
      <point x="530" y="714" type="line"/>
      <point x="45" y="714" type="line"/>
      <point x="45" y="621" type="line"/>
      <point x="400" y="621" type="line"/>
      <point x="34" y="77" type="line"/>
    </contour>
  </outline>
</glyph>
<glyph name="uniA6CA" format="2">
  <advance width="758.62295"/>
  <unicode hex="A6CA"/>
  <outline>
    <contour>
      <point x="552" y="573" type="curve" smooth="yes"/>
      <point x="454" y="573"/>
      <point x="389" y="500"/>
      <point x="389" y="376" type="curve" smooth="yes"/>
      <point x="389" y="365" type="line"/>
      <point x="494" y="365" type="line"/>
      <point x="494" y="385" type="line" smooth="yes"/>
      <point x="494" y="454"/>
      <point x="517" y="484"/>
      <point x="556" y="484" type="curve" smooth="yes"/>
      <point x="593" y="484"/>
      <point x="619" y="446"/>
      <point x="619" y="381" type="curve" smooth="yes"/>
      <point x="619" y="303"/>
      <point x="580" y="248"/>
      <point x="489" y="248" type="curve" smooth="yes"/>
      <point x="401" y="248"/>
      <point x="326" y="309"/>
      <point x="326" y="413" type="curve" smooth="yes"/>
      <point x="326" y="422"/>
      <point x="326" y="465"/>
      <point x="332" y="524" type="curve" smooth="yes"/>
      <point x="353" y="714" type="line"/>
      <point x="245" y="714" type="line"/>
      <point x="208" y="333" type="line" smooth="yes"/>
      <point x="194" y="186"/>
      <point x="140" y="94"/>
      <point x="39" y="94" type="curve" smooth="yes"/>
      <point x="5" y="94" type="line"/>
      <point x="5" y="1" type="line"/>
      <point x="47" y="1" type="line" smooth="yes"/>
      <point x="146" y="1"/>
      <point x="261" y="43"/>
      <point x="299" y="243" type="curve"/>
      <point x="334" y="203"/>
      <point x="402" y="159"/>
      <point x="495" y="159" type="curve" smooth="yes"/>
      <point x="626" y="159"/>
      <point x="726" y="236"/>
      <point x="726" y="376" type="curve" smooth="yes"/>
      <point x="726" y="476"/>
      <point x="680" y="573"/>
    </contour>
  </outline>
</glyph>
<glyph name="uniA6CB" format="2">
  <advance width="570.08197"/>
  <unicode hex="A6CB"/>
  <outline>
    <contour>
      <point x="570" y="714" type="line"/>
      <point x="231" y="714" type="line"/>
      <point x="231" y="629" type="line"/>
      <point x="346" y="629" type="line"/>
      <point x="41" y="438" type="line"/>
      <point x="95" y="351" type="line"/>
      <point x="236" y="441" type="line" smooth="yes"/>
      <point x="285" y="472"/>
      <point x="324" y="494"/>
      <point x="358" y="528" type="curve"/>
      <point x="347" y="481"/>
      <point x="338" y="434"/>
      <point x="329" y="377" type="curve" smooth="yes"/>
      <point x="272" y="0" type="line"/>
      <point x="382" y="0" type="line"/>
      <point x="468" y="629" type="line"/>
      <point x="570" y="629" type="line"/>
    </contour>
  </outline>
</glyph>
<glyph name="uniA6CC" format="2">
  <advance width="488.01639"/>
  <unicode hex="A6CC"/>
  <outline>
    <contour>
      <point x="225" y="131" type="curve" smooth="yes"/>
      <point x="374" y="131"/>
      <point x="456" y="182"/>
      <point x="456" y="261" type="curve" smooth="yes"/>
      <point x="456" y="326"/>
      <point x="401" y="352"/>
      <point x="344" y="364" type="curve"/>
      <point x="344" y="368" type="line"/>
      <point x="398" y="383"/>
      <point x="437" y="413"/>
      <point x="437" y="469" type="curve" smooth="yes"/>
      <point x="437" y="548"/>
      <point x="351" y="587"/>
      <point x="226" y="587" type="curve" smooth="yes"/>
      <point x="153" y="587"/>
      <point x="95" y="572"/>
      <point x="41" y="549" type="curve"/>
      <point x="75" y="473" type="line"/>
      <point x="119" y="489"/>
      <point x="167" y="502"/>
      <point x="226" y="502" type="curve" smooth="yes"/>
      <point x="303" y="502"/>
      <point x="335" y="481"/>
      <point x="335" y="455" type="curve" smooth="yes"/>
      <point x="335" y="421"/>
      <point x="288" y="407"/>
      <point x="205" y="407" type="curve" smooth="yes"/>
      <point x="133" y="407" type="line"/>
      <point x="133" y="328" type="line"/>
      <point x="215" y="328" type="line" smooth="yes"/>
      <point x="308" y="328"/>
      <point x="350" y="309"/>
      <point x="350" y="272" type="curve" smooth="yes"/>
      <point x="350" y="242"/>
      <point x="320" y="216"/>
      <point x="222" y="216" type="curve" smooth="yes"/>
      <point x="146" y="216"/>
      <point x="90" y="232"/>
      <point x="42" y="252" type="curve"/>
      <point x="42" y="170" type="line"/>
      <point x="82" y="149"/>
      <point x="138" y="131"/>
    </contour>
    <component base="_dot" xOffset="-31" yOffset="-344"/>
    <component base="_dot" xOffset="-31" yOffset="269"/>
  </outline>
</glyph>
<glyph name="uniA6CD" format="2">
  <advance width="553.96721"/>
  <unicode hex="A6CD"/>
  <outline>
    <contour>
      <point x="224" y="0" type="line"/>
      <point x="330" y="0" type="line"/>
      <point x="330" y="136" type="line"/>
      <point x="481" y="136" type="line"/>
      <point x="481" y="224" type="line"/>
      <point x="330" y="224" type="line"/>
      <point x="330" y="295" type="line"/>
      <point x="438" y="314"/>
      <point x="501" y="397"/>
      <point x="501" y="507" type="curve" smooth="yes"/>
      <point x="501" y="643"/>
      <point x="409" y="725"/>
      <point x="278" y="725" type="curve" smooth="yes"/>
      <point x="149" y="725"/>
      <point x="53" y="643"/>
      <point x="52" y="507" type="curve"/>
      <point x="161" y="507" type="line"/>
      <point x="162" y="584"/>
      <point x="205" y="636"/>
      <point x="276" y="636" type="curve" smooth="yes"/>
      <point x="351" y="636"/>
      <point x="392" y="581"/>
      <point x="392" y="507" type="curve" smooth="yes"/>
      <point x="392" y="436"/>
      <point x="356" y="374"/>
      <point x="275" y="374" type="curve" smooth="yes"/>
      <point x="224" y="374" type="line"/>
      <point x="224" y="224" type="line"/>
      <point x="73" y="224" type="line"/>
      <point x="73" y="136" type="line"/>
      <point x="224" y="136" type="line"/>
    </contour>
  </outline>
</glyph>
<glyph name="uniA6CE" format="2">
  <advance width="614.7541"/>
  <unicode hex="A6CE"/>
  <outline>
    <contour>
      <point x="0" y="0" type="line"/>
      <point x="112" y="0" type="line"/>
      <point x="265" y="448" type="line" smooth="yes"/>
      <point x="282" y="499"/>
      <point x="299" y="561"/>
      <point x="307" y="606" type="curve"/>
      <point x="316" y="562"/>
      <point x="333" y="499"/>
      <point x="351" y="449" type="curve" smooth="yes"/>
      <point x="503" y="0" type="line"/>
      <point x="615" y="0" type="line"/>
      <point x="363" y="714" type="line"/>
      <point x="251" y="714" type="line"/>
    </contour>
  </outline>
</glyph>
<glyph name="uniA6CF" format="2">
  <advance width="710"/>
  <unicode hex="A6CF"/>
  <outline>
    <contour>
      <point x="196" y="629" type="line"/>
      <point x="511" y="629" type="line"/>
      <point x="511" y="714" type="line"/>
      <point x="196" y="714" type="line"/>
    </contour>
    <contour>
      <point x="39" y="179" type="line"/>
      <point x="146" y="179" type="line"/>
      <point x="186" y="342" type="line" smooth="yes"/>
      <point x="198" y="390"/>
      <point x="211" y="445"/>
      <point x="215" y="480" type="curve"/>
      <point x="218" y="480" type="line"/>
      <point x="224" y="449"/>
      <point x="238" y="392"/>
      <point x="250" y="354" type="curve" smooth="yes"/>
      <point x="304" y="179" type="line"/>
      <point x="407" y="179" type="line"/>
      <point x="459" y="354" type="line" smooth="yes"/>
      <point x="471" y="394"/>
      <point x="486" y="443"/>
      <point x="491" y="478" type="curve"/>
      <point x="494" y="478" type="line"/>
      <point x="498" y="447"/>
      <point x="512" y="392"/>
      <point x="524" y="343" type="curve" smooth="yes"/>
      <point x="563" y="179" type="line"/>
      <point x="670" y="179" type="line"/>
      <point x="561" y="585" type="line"/>
      <point x="439" y="585" type="line"/>
      <point x="391" y="426" type="line" smooth="yes"/>
      <point x="379" y="387"/>
      <point x="365" y="332"/>
      <point x="356" y="296" type="curve"/>
      <point x="353" y="296" type="line"/>
      <point x="346" y="332"/>
      <point x="332" y="387"/>
      <point x="319" y="427" type="curve" smooth="yes"/>
      <point x="269" y="585" type="line"/>
      <point x="148" y="585" type="line"/>
    </contour>
    <contour>
      <point x="302" y="0" type="line"/>
      <point x="409" y="0" type="line"/>
      <point x="409" y="130" type="line"/>
      <point x="302" y="130" type="line"/>
    </contour>
  </outline>
</glyph>
<glyph name="uniA6D0" format="2">
  <advance width="474.14754"/>
  <unicode hex="A6D0"/>
  <outline>
    <contour>
      <point x="293" y="389" type="curve" smooth="yes"/>
      <point x="389" y="389" type="line"/>
      <point x="389" y="482" type="line"/>
      <point x="293" y="482" type="line" smooth="yes"/>
      <point x="197" y="482"/>
      <point x="157" y="504"/>
      <point x="157" y="552" type="curve" smooth="yes"/>
      <point x="157" y="599"/>
      <point x="192" y="621"/>
      <point x="293" y="621" type="curve" smooth="yes"/>
      <point x="389" y="621" type="line"/>
      <point x="389" y="714" type="line"/>
      <point x="293" y="714" type="line" smooth="yes"/>
      <point x="113" y="714"/>
      <point x="48" y="648"/>
      <point x="48" y="552" type="curve" smooth="yes"/>
      <point x="48" y="464"/>
      <point x="110" y="389"/>
    </contour>
    <contour>
      <point x="191" y="0" type="line"/>
      <point x="299" y="0" type="line"/>
      <point x="299" y="334" type="line"/>
      <point x="191" y="334" type="line"/>
    </contour>
  </outline>
</glyph>
<glyph name="uniA6D1" format="2">
  <advance width="630.44262"/>
  <unicode hex="A6D1"/>
  <outline>
    <contour>
      <point x="106" y="-10" type="line"/>
      <point x="128" y="-10" type="line" smooth="yes"/>
      <point x="386" y="-10"/>
      <point x="515" y="136"/>
      <point x="515" y="358" type="curve" smooth="yes"/>
      <point x="515" y="583"/>
      <point x="388" y="725"/>
      <point x="147" y="725" type="curve" smooth="yes"/>
      <point x="106" y="725" type="line"/>
      <point x="106" y="632" type="line"/>
      <point x="149" y="632" type="line" smooth="yes"/>
      <point x="331" y="632"/>
      <point x="404" y="532"/>
      <point x="404" y="358" type="curve" smooth="yes"/>
      <point x="404" y="182"/>
      <point x="329" y="79"/>
      <point x="136" y="79" type="curve" smooth="yes"/>
      <point x="106" y="79" type="line"/>
    </contour>
    <component base="_dot" xOffset="308" yOffset="209"/>
  </outline>
</glyph>
<glyph name="uniA6D2" format="2">
  <advance width="525.01639"/>
  <unicode hex="A6D2"/>
  <outline>
    <contour>
      <point x="327" y="236" type="line" smooth="yes"/>
      <point x="428" y="337"/>
      <point x="499" y="421"/>
      <point x="499" y="531" type="curve" smooth="yes"/>
      <point x="499" y="648"/>
      <point x="419" y="724"/>
      <point x="293" y="724" type="curve" smooth="yes"/>
      <point x="240" y="724"/>
      <point x="197" y="711"/>
      <point x="164" y="690" type="curve"/>
      <point x="198" y="605" type="line"/>
      <point x="221" y="620"/>
      <point x="250" y="634"/>
      <point x="286" y="634" type="curve" smooth="yes"/>
      <point x="353" y="634"/>
      <point x="391" y="588"/>
      <point x="391" y="526" type="curve" smooth="yes"/>
      <point x="391" y="439"/>
      <point x="338" y="380"/>
      <point x="246" y="283" type="curve" smooth="yes"/>
      <point x="176" y="211" type="line"/>
      <point x="22" y="291" type="line"/>
      <point x="22" y="180" type="line"/>
      <point x="392" y="-11" type="line"/>
      <point x="392" y="99" type="line"/>
      <point x="259" y="168" type="line"/>
    </contour>
  </outline>
</glyph>
<glyph name="uniA6D3" format="2">
  <advance width="675.45902"/>
  <unicode hex="A6D3"/>
  <outline>
    <contour>
      <point x="232" y="0" type="line"/>
      <point x="339" y="0" type="line"/>
      <point x="339" y="355" type="line"/>
      <point x="357" y="354"/>
      <point x="377" y="353"/>
      <point x="396" y="353" type="curve" smooth="yes"/>
      <point x="536" y="353"/>
      <point x="621" y="432"/>
      <point x="621" y="547" type="curve" smooth="yes"/>
      <point x="621" y="651"/>
      <point x="552" y="725"/>
      <point x="429" y="725" type="curve" smooth="yes"/>
      <point x="307" y="725"/>
      <point x="232" y="649"/>
      <point x="232" y="492" type="curve" smooth="yes"/>
      <point x="232" y="466" type="line"/>
      <point x="171" y="482"/>
      <point x="113" y="507"/>
      <point x="57" y="535" type="curve"/>
      <point x="18" y="449" type="line"/>
      <point x="66" y="417"/>
      <point x="149" y="386"/>
      <point x="232" y="370" type="curve"/>
    </contour>
    <contour>
      <point x="391" y="446" type="curve" smooth="yes"/>
      <point x="373" y="446"/>
      <point x="355" y="447"/>
      <point x="339" y="448" type="curve"/>
      <point x="339" y="490" type="line" smooth="yes"/>
      <point x="339" y="601"/>
      <point x="378" y="633"/>
      <point x="428" y="633" type="curve" smooth="yes"/>
      <point x="487" y="633"/>
      <point x="514" y="593"/>
      <point x="514" y="548" type="curve" smooth="yes"/>
      <point x="514" y="484"/>
      <point x="472" y="446"/>
    </contour>
    <contour>
      <point x="479" y="0" type="line"/>
      <point x="587" y="0" type="line"/>
      <point x="587" y="304" type="line"/>
      <point x="479" y="304" type="line"/>
    </contour>
  </outline>
</glyph>
<glyph name="uniA6D4" format="2">
  <advance width="726.57377"/>
  <unicode hex="A6D4"/>
  <outline>
    <contour>
      <point x="79" y="0" type="line"/>
      <point x="186" y="0" type="line"/>
      <point x="186" y="177" type="line" smooth="yes"/>
      <point x="186" y="285"/>
      <point x="222" y="336"/>
      <point x="308" y="350" type="curve"/>
      <point x="308" y="0" type="line"/>
      <point x="416" y="0" type="line"/>
      <point x="416" y="351" type="line"/>
      <point x="490" y="339"/>
      <point x="539" y="300"/>
      <point x="539" y="179" type="curve" smooth="yes"/>
      <point x="539" y="0" type="line"/>
      <point x="648" y="0" type="line"/>
      <point x="648" y="180" type="line" smooth="yes"/>
      <point x="648" y="337"/>
      <point x="571" y="430"/>
      <point x="416" y="444" type="curve"/>
      <point x="416" y="714" type="line"/>
      <point x="308" y="714" type="line"/>
      <point x="308" y="444" type="line"/>
      <point x="141" y="426"/>
      <point x="79" y="319"/>
      <point x="79" y="178" type="curve" smooth="yes"/>
    </contour>
    <component base="_dot" xOffset="323" yOffset="181"/>
  </outline>
</glyph>
<glyph name="uniA6D5" format="2">
  <advance width="533.86885"/>
  <unicode hex="A6D5"/>
  <outline>
    <contour>
      <point x="95" y="0" type="line"/>
      <point x="166" y="0" type="line"/>
      <point x="471" y="157" type="line"/>
      <point x="471" y="267" type="line"/>
      <point x="287" y="172" type="line" smooth="yes"/>
      <point x="259" y="158"/>
      <point x="229" y="142"/>
      <point x="201" y="126" type="curve"/>
      <point x="202" y="157"/>
      <point x="203" y="190"/>
      <point x="203" y="220" type="curve" smooth="yes"/>
      <point x="203" y="495" type="line" smooth="yes"/>
      <point x="203" y="524"/>
      <point x="202" y="558"/>
      <point x="201" y="588" type="curve"/>
      <point x="225" y="574"/>
      <point x="252" y="559"/>
      <point x="278" y="546" type="curve" smooth="yes"/>
      <point x="471" y="447" type="line"/>
      <point x="471" y="557" type="line"/>
      <point x="166" y="714" type="line"/>
      <point x="95" y="714" type="line"/>
    </contour>
  </outline>
</glyph>
<glyph name="uniA6D7" format="2">
  <advance width="721.95082"/>
  <unicode hex="A6D7"/>
  <outline>
    <contour>
      <point x="374" y="725" type="curve" smooth="yes"/>
      <point x="157" y="725"/>
      <point x="78" y="607"/>
      <point x="78" y="394" type="curve" smooth="yes"/>
      <point x="78" y="267"/>
      <point x="104" y="121"/>
      <point x="137" y="0" type="curve"/>
      <point x="244" y="0" type="line"/>
      <point x="213" y="124"/>
      <point x="188" y="265"/>
      <point x="188" y="393" type="curve" smooth="yes"/>
      <point x="188" y="517"/>
      <point x="208" y="608"/>
      <point x="315" y="627" type="curve"/>
      <point x="315" y="333" type="line"/>
      <point x="423" y="333" type="line"/>
      <point x="423" y="628" type="line"/>
      <point x="508" y="614"/>
      <point x="541" y="561"/>
      <point x="541" y="461" type="curve" smooth="yes"/>
      <point x="541" y="333" type="line"/>
      <point x="648" y="333" type="line"/>
      <point x="648" y="454" type="line" smooth="yes"/>
      <point x="648" y="652"/>
      <point x="548" y="725"/>
    </contour>
  </outline>
</glyph>
<glyph name="uniA6D8" format="2">
  <advance width="726.2623"/>
  <unicode hex="A6D8"/>
  <outline>
    <contour>
      <point x="596" y="714" type="line"/>
      <point x="292" y="256" type="line" smooth="yes"/>
      <point x="269" y="221"/>
      <point x="241" y="175"/>
      <point x="219" y="127" type="curve"/>
      <point x="216" y="171"/>
      <point x="209" y="226"/>
      <point x="202" y="270" type="curve" smooth="yes"/>
      <point x="154" y="591" type="line"/>
      <point x="330" y="482" type="line"/>
      <point x="330" y="592" type="line"/>
      <point x="133" y="714" type="line"/>
      <point x="32" y="714" type="line"/>
      <point x="133" y="0" type="line"/>
      <point x="241" y="0" type="line"/>
      <point x="481" y="366" type="line" smooth="yes"/>
      <point x="517" y="421"/>
      <point x="539" y="463"/>
      <point x="565" y="515" type="curve"/>
      <point x="568" y="513" type="line"/>
      <point x="554" y="458"/>
      <point x="548" y="409"/>
      <point x="537" y="341" type="curve" smooth="yes"/>
      <point x="484" y="0" type="line"/>
      <point x="593" y="0" type="line"/>
      <point x="694" y="714" type="line"/>
    </contour>
  </outline>
</glyph>
<glyph name="uniA6D9" format="2">
  <advance width="600"/>
  <unicode hex="A6D9"/>
  <outline>
    <contour>
      <point x="604" y="492" type="line"/>
      <point x="566" y="567" type="line"/>
      <point x="434" y="497" type="line"/>
      <point x="465" y="714" type="line"/>
      <point x="353" y="714" type="line"/>
      <point x="26" y="512" type="line"/>
      <point x="79" y="424" type="line"/>
      <point x="232" y="520" type="line" smooth="yes"/>
      <point x="283" y="552"/>
      <point x="321" y="575"/>
      <point x="352" y="607" type="curve"/>
      <point x="340" y="560"/>
      <point x="332" y="516"/>
      <point x="323" y="462" type="curve" smooth="yes"/>
      <point x="320" y="437" type="line"/>
      <point x="124" y="333" type="line"/>
      <point x="162" y="259" type="line"/>
      <point x="305" y="334" type="line"/>
      <point x="254" y="0" type="line"/>
      <point x="364" y="0" type="line"/>
      <point x="419" y="394" type="line"/>
    </contour>
  </outline>
</glyph>
<glyph name="uniA6DB" format="2">
  <advance width="658.96721"/>
  <unicode hex="A6DB"/>
  <outline>
    <contour>
      <point x="95" y="0" type="line"/>
      <point x="203" y="0" type="line"/>
      <point x="203" y="621" type="line"/>
      <point x="457" y="621" type="line"/>
      <point x="457" y="0" type="line"/>
      <point x="564" y="0" type="line"/>
      <point x="564" y="714" type="line"/>
      <point x="95" y="714" type="line"/>
    </contour>
  </outline>
</glyph>
<glyph name="uniA6DC" format="2">
  <advance width="623.72131"/>
  <unicode hex="A6DC"/>
  <outline>
    <contour>
      <point x="351" y="0" type="curve"/>
      <point x="455" y="0" type="line"/>
      <point x="510" y="91"/>
      <point x="545" y="201"/>
      <point x="545" y="296" type="curve" smooth="yes"/>
      <point x="545" y="465"/>
      <point x="481" y="580"/>
      <point x="302" y="580" type="curve" smooth="yes"/>
      <point x="175" y="580"/>
      <point x="73" y="506"/>
      <point x="73" y="363" type="curve" smooth="yes"/>
      <point x="73" y="270"/>
      <point x="117" y="178"/>
      <point x="232" y="178" type="curve" smooth="yes"/>
      <point x="304" y="178"/>
      <point x="375" y="221"/>
      <point x="375" y="346" type="curve" smooth="yes"/>
      <point x="375" y="359"/>
      <point x="374" y="370"/>
      <point x="372" y="378" type="curve"/>
      <point x="277" y="378" type="line"/>
      <point x="278" y="371"/>
      <point x="278" y="364"/>
      <point x="278" y="351" type="curve" smooth="yes"/>
      <point x="278" y="295"/>
      <point x="261" y="267"/>
      <point x="230" y="267" type="curve" smooth="yes"/>
      <point x="200" y="267"/>
      <point x="180" y="306"/>
      <point x="180" y="361" type="curve" smooth="yes"/>
      <point x="180" y="439"/>
      <point x="220" y="493"/>
      <point x="302" y="493" type="curve" smooth="yes"/>
      <point x="401" y="493"/>
      <point x="438" y="412"/>
      <point x="438" y="296" type="curve" smooth="yes"/>
      <point x="438" y="197"/>
      <point x="400" y="91"/>
    </contour>
    <component base="_dot" xOffset="38" yOffset="272"/>
  </outline>
</glyph>
<glyph name="uniA6DD" format="2">
  <advance width="693.08197"/>
  <unicode hex="A6DD"/>
  <outline>
    <contour>
      <point x="306" y="725" type="curve" smooth="yes"/>
      <point x="181" y="725"/>
      <point x="78" y="643"/>
      <point x="78" y="490" type="curve" smooth="yes"/>
      <point x="78" y="358"/>
      <point x="164" y="257"/>
      <point x="306" y="257" type="curve" smooth="yes"/>
      <point x="366" y="257"/>
      <point x="409" y="281"/>
      <point x="439" y="305" type="curve"/>
      <point x="423" y="200"/>
      <point x="382" y="94"/>
      <point x="331" y="0" type="curve"/>
      <point x="440" y="0" type="line"/>
      <point x="510" y="122"/>
      <point x="553" y="270"/>
      <point x="553" y="400" type="curve" smooth="yes"/>
      <point x="553" y="599"/>
      <point x="486" y="725"/>
    </contour>
    <contour>
      <point x="279" y="380" type="curve" smooth="yes"/>
      <point x="218" y="400"/>
      <point x="197" y="459"/>
      <point x="215" y="523" type="curve" smooth="yes"/>
      <point x="236" y="595"/>
      <point x="287" y="618"/>
      <point x="341" y="584" type="curve" smooth="yes"/>
      <point x="409" y="574"/>
      <point x="425" y="492"/>
      <point x="412" y="401" type="curve"/>
      <point x="368" y="368"/>
      <point x="319" y="357"/>
    </contour>
    <component base="_dot" xOffset="377" yOffset="84"/>
  </outline>
</glyph>
<glyph name="uniA6DE" format="2">
  <advance width="587.2623"/>
  <unicode hex="A6DE"/>
  <outline>
    <contour>
      <point x="95" y="0" type="line"/>
      <point x="203" y="0" type="line"/>
      <point x="203" y="322" type="line"/>
      <point x="511" y="322" type="line"/>
      <point x="511" y="714" type="line"/>
      <point x="95" y="714" type="line"/>
      <point x="95" y="621" type="line"/>
      <point x="403" y="621" type="line"/>
      <point x="403" y="415" type="line"/>
      <point x="95" y="415" type="line"/>
    </contour>
  </outline>
</glyph>
<glyph name="uniA6DF" format="2">
  <advance width="614.7541"/>
  <unicode hex="A6DF"/>
  <outline>
    <contour>
      <point x="251" y="0" type="line"/>
      <point x="363" y="0" type="line"/>
      <point x="615" y="714" type="line"/>
      <point x="503" y="714" type="line"/>
      <point x="350" y="267" type="line" smooth="yes"/>
      <point x="333" y="218"/>
      <point x="315" y="155"/>
      <point x="307" y="109" type="curve"/>
      <point x="299" y="155"/>
      <point x="281" y="218"/>
      <point x="264" y="266" type="curve" smooth="yes"/>
      <point x="111" y="714" type="line"/>
      <point x="0" y="714" type="line"/>
    </contour>
  </outline>
</glyph>
<glyph name="uniA6E0" format="2">
  <advance width="658.2459"/>
  <unicode hex="A6E0"/>
  <outline>
    <contour>
      <point x="620" y="534" type="line"/>
      <point x="314" y="714" type="line"/>
      <point x="217" y="714" type="line"/>
      <point x="217" y="325" type="line"/>
      <point x="5" y="197" type="line"/>
      <point x="57" y="111" type="line"/>
      <point x="217" y="209" type="line"/>
      <point x="217" y="0" type="line"/>
      <point x="325" y="0" type="line"/>
      <point x="325" y="270" type="line"/>
      <point x="620" y="449" type="line"/>
    </contour>
    <contour>
      <point x="325" y="594" type="line"/>
      <point x="504" y="489" type="line"/>
      <point x="325" y="384" type="line"/>
    </contour>
  </outline>
</glyph>
<glyph name="uniA6E1" format="2">
  <advance width="923.72131"/>
  <unicode hex="A6E1"/>
  <outline>
    <contour>
      <point x="806" y="420" type="line"/>
      <point x="795" y="381"/>
      <point x="764" y="327"/>
      <point x="702" y="327" type="curve" smooth="yes"/>
      <point x="632" y="327"/>
      <point x="588" y="378"/>
      <point x="548" y="448" type="curve"/>
      <point x="722" y="661" type="line"/>
      <point x="652" y="718" type="line"/>
      <point x="505" y="538" type="line"/>
      <point x="436" y="670"/>
      <point x="364" y="717"/>
      <point x="267" y="717" type="curve" smooth="yes"/>
      <point x="144" y="717"/>
      <point x="43" y="630"/>
      <point x="43" y="475" type="curve" smooth="yes"/>
      <point x="43" y="334"/>
      <point x="125" y="234"/>
      <point x="264" y="235" type="curve" smooth="yes"/>
      <point x="371" y="236"/>
      <point x="430" y="305"/>
      <point x="472" y="355" type="curve" smooth="yes"/>
      <point x="484" y="369" type="line"/>
      <point x="544" y="272"/>
      <point x="615" y="238"/>
      <point x="702" y="238" type="curve" smooth="yes"/>
      <point x="794" y="238"/>
      <point x="868" y="292"/>
      <point x="901" y="381" type="curve"/>
    </contour>
    <contour>
      <point x="436" y="455" type="line"/>
      <point x="403" y="414" type="line" smooth="yes"/>
      <point x="357" y="359"/>
      <point x="329" y="324"/>
      <point x="268" y="324" type="curve" smooth="yes"/>
      <point x="193" y="324"/>
      <point x="150" y="383"/>
      <point x="150" y="475" type="curve" smooth="yes"/>
      <point x="150" y="556"/>
      <point x="186" y="629"/>
      <point x="269" y="629" type="curve" smooth="yes"/>
      <point x="336" y="629"/>
      <point x="384" y="569"/>
      <point x="436" y="457" type="curve"/>
    </contour>
    <contour>
      <point x="158" y="60" type="line"/>
      <point x="771" y="60" type="line"/>
      <point x="771" y="151" type="line"/>
      <point x="158" y="151" type="line"/>
    </contour>
  </outline>
</glyph>
<glyph name="uniA6E2" format="2">
  <advance width="538.37705"/>
  <unicode hex="A6E2"/>
  <outline>
    <contour>
      <point x="366" y="-10" type="curve" smooth="yes"/>
      <point x="425" y="-10"/>
      <point x="467" y="3"/>
      <point x="502" y="18" type="curve"/>
      <point x="502" y="112" type="line"/>
      <point x="470" y="96"/>
      <point x="420" y="82"/>
      <point x="369" y="82" type="curve" smooth="yes"/>
      <point x="247" y="82"/>
      <point x="172" y="152"/>
      <point x="172" y="282" type="curve" smooth="yes"/>
      <point x="172" y="429"/>
      <point x="258" y="504"/>
      <point x="400" y="504" type="curve" smooth="yes"/>
      <point x="467" y="504" type="line"/>
      <point x="467" y="597" type="line"/>
      <point x="80" y="725" type="line"/>
      <point x="80" y="628" type="line"/>
      <point x="178" y="596" type="line" smooth="yes"/>
      <point x="219" y="583"/>
      <point x="261" y="573"/>
      <point x="288" y="568" type="curve"/>
      <point x="288" y="565" type="line"/>
      <point x="152" y="541"/>
      <point x="59" y="434"/>
      <point x="59" y="281" type="curve" smooth="yes"/>
      <point x="59" y="96"/>
      <point x="179" y="-10"/>
    </contour>
  </outline>
</glyph>
<glyph name="uniA6E3" format="2">
  <advance width="587.55738"/>
  <unicode hex="A6E3"/>
  <outline>
    <contour>
      <point x="385" y="0" type="line"/>
      <point x="493" y="0" type="line"/>
      <point x="493" y="593" type="line"/>
      <point x="184" y="593" type="line"/>
      <point x="184" y="714" type="line"/>
      <point x="76" y="714" type="line"/>
      <point x="76" y="372" type="line"/>
      <point x="184" y="372" type="line"/>
      <point x="184" y="500" type="line"/>
      <point x="385" y="500" type="line"/>
    </contour>
  </outline>
</glyph>
<glyph name="uniA6E4" format="2">
  <advance width="596.36066"/>
  <unicode hex="A6E4"/>
  <outline>
    <contour>
      <point x="101" y="0" type="curve"/>
      <point x="207" y="0" type="line"/>
      <point x="219" y="68"/>
      <point x="226" y="147"/>
      <point x="226" y="225" type="curve" smooth="yes"/>
      <point x="226" y="384"/>
      <point x="188" y="547"/>
      <point x="118" y="714" type="curve"/>
      <point x="14" y="714" type="line"/>
      <point x="80" y="547"/>
      <point x="119" y="403"/>
      <point x="119" y="210" type="curve" smooth="yes"/>
      <point x="119" y="136"/>
      <point x="113" y="75"/>
    </contour>
    <contour>
      <point x="246" y="324" type="line"/>
      <point x="281" y="324" type="line" smooth="yes"/>
      <point x="463" y="324"/>
      <point x="563" y="408"/>
      <point x="563" y="521" type="curve" smooth="yes"/>
      <point x="563" y="632"/>
      <point x="476" y="714"/>
      <point x="295" y="714" type="curve" smooth="yes"/>
      <point x="246" y="714" type="line"/>
      <point x="246" y="624" type="line"/>
      <point x="288" y="624" type="line" smooth="yes"/>
      <point x="401" y="624"/>
      <point x="454" y="586"/>
      <point x="454" y="523" type="curve" smooth="yes"/>
      <point x="454" y="454"/>
      <point x="396" y="413"/>
      <point x="288" y="413" type="curve" smooth="yes"/>
      <point x="246" y="413" type="line"/>
    </contour>
  </outline>
</glyph>
<glyph name="uniA6E5" format="2">
  <advance width="658.27869"/>
  <unicode hex="A6E5"/>
  <outline>
    <contour>
      <point x="95" y="0" type="line"/>
      <point x="203" y="0" type="line"/>
      <point x="203" y="506" type="line"/>
      <point x="284" y="506" type="line"/>
      <point x="304" y="440"/>
      <point x="371" y="389"/>
      <point x="522" y="389" type="curve" smooth="yes"/>
      <point x="612" y="389" type="line"/>
      <point x="612" y="482" type="line"/>
      <point x="522" y="482" type="line" smooth="yes"/>
      <point x="426" y="482"/>
      <point x="387" y="504"/>
      <point x="387" y="552" type="curve" smooth="yes"/>
      <point x="387" y="599"/>
      <point x="421" y="621"/>
      <point x="522" y="621" type="curve" smooth="yes"/>
      <point x="612" y="621" type="line"/>
      <point x="612" y="714" type="line"/>
      <point x="522" y="714" type="line" smooth="yes"/>
      <point x="373" y="714"/>
      <point x="303" y="669"/>
      <point x="284" y="599" type="curve"/>
      <point x="95" y="599" type="line"/>
    </contour>
  </outline>
</glyph>
<glyph name="uniA6E6" format="2">
  <advance width="508.62295"/>
  <unicode hex="A6E6"/>
  <outline>
    <contour>
      <point x="48" y="283" type="line"/>
      <point x="241" y="283" type="line" smooth="yes"/>
      <point x="334" y="283"/>
      <point x="371" y="239"/>
      <point x="371" y="170" type="curve" smooth="yes"/>
      <point x="371" y="109"/>
      <point x="345" y="58"/>
      <point x="298" y="0" type="curve"/>
      <point x="401" y="0" type="line"/>
      <point x="451" y="60"/>
      <point x="479" y="118"/>
      <point x="479" y="186" type="curve" smooth="yes"/>
      <point x="479" y="296"/>
      <point x="416" y="364"/>
      <point x="307" y="372" type="curve"/>
      <point x="307" y="629" type="line"/>
      <point x="458" y="629" type="line"/>
      <point x="458" y="714" type="line"/>
      <point x="48" y="714" type="line"/>
      <point x="48" y="629" type="line"/>
      <point x="199" y="629" type="line"/>
      <point x="199" y="372" type="line"/>
      <point x="48" y="372" type="line"/>
    </contour>
  </outline>
</glyph>
<glyph name="uniA6E8" format="2">
  <advance width="497.67213"/>
  <unicode hex="A6E8"/>
  <outline>
    <contour>
      <point x="54" y="0" type="line"/>
      <point x="480" y="0" type="line"/>
      <point x="480" y="89" type="line"/>
      <point x="329" y="89" type="line"/>
      <point x="329" y="714" type="line"/>
      <point x="54" y="714" type="line"/>
      <point x="54" y="497" type="line"/>
      <point x="141" y="497" type="line"/>
      <point x="141" y="625" type="line"/>
      <point x="221" y="625" type="line"/>
      <point x="221" y="89" type="line"/>
      <point x="54" y="89" type="line"/>
    </contour>
  </outline>
</glyph>
<glyph name="uniA6E9" format="2">
  <advance width="508.62295"/>
  <unicode hex="A6E9"/>
  <outline>
    <contour>
      <point x="298" y="0" type="curve"/>
      <point x="401" y="0" type="line"/>
      <point x="451" y="60"/>
      <point x="479" y="118"/>
      <point x="479" y="186" type="curve" smooth="yes"/>
      <point x="479" y="296"/>
      <point x="416" y="364"/>
      <point x="307" y="372" type="curve"/>
      <point x="307" y="714" type="line"/>
      <point x="199" y="714" type="line"/>
      <point x="199" y="372" type="line"/>
      <point x="48" y="372" type="line"/>
      <point x="48" y="283" type="line"/>
      <point x="241" y="283" type="line" smooth="yes"/>
      <point x="334" y="283"/>
      <point x="371" y="239"/>
      <point x="371" y="170" type="curve" smooth="yes"/>
      <point x="371" y="109"/>
      <point x="345" y="58"/>
    </contour>
  </outline>
</glyph>
<glyph name="uniA6EA" format="2">
  <advance width="508.62295"/>
  <unicode hex="A6EA"/>
  <outline>
    <contour>
      <point x="298" y="0" type="curve"/>
      <point x="401" y="0" type="line"/>
      <point x="451" y="60"/>
      <point x="479" y="118"/>
      <point x="479" y="186" type="curve" smooth="yes"/>
      <point x="479" y="296"/>
      <point x="416" y="364"/>
      <point x="307" y="372" type="curve"/>
      <point x="307" y="714" type="line"/>
      <point x="232" y="714" type="line"/>
      <point x="48" y="624" type="line"/>
      <point x="48" y="526" type="line"/>
      <point x="115" y="558" type="line" smooth="yes"/>
      <point x="145" y="572"/>
      <point x="171" y="585"/>
      <point x="199" y="602" type="curve"/>
      <point x="199" y="372" type="line"/>
      <point x="48" y="372" type="line"/>
      <point x="48" y="283" type="line"/>
      <point x="241" y="283" type="line" smooth="yes"/>
      <point x="334" y="283"/>
      <point x="371" y="239"/>
      <point x="371" y="170" type="curve" smooth="yes"/>
      <point x="371" y="109"/>
      <point x="345" y="58"/>
    </contour>
  </outline>
</glyph>
<glyph name="uniA6EB" format="2">
  <advance width="548.06557"/>
  <unicode hex="A6EB"/>
  <outline>
    <contour>
      <point x="217" y="0" type="line"/>
      <point x="323" y="0" type="line"/>
      <point x="323" y="290" type="line"/>
      <point x="431" y="311"/>
      <point x="495" y="391"/>
      <point x="495" y="505" type="curve" smooth="yes"/>
      <point x="495" y="631"/>
      <point x="418" y="725"/>
      <point x="263" y="725" type="curve" smooth="yes"/>
      <point x="153" y="725"/>
      <point x="80" y="670"/>
      <point x="31" y="590" type="curve"/>
      <point x="102" y="532" type="line"/>
      <point x="144" y="595"/>
      <point x="188" y="636"/>
      <point x="263" y="636" type="curve" smooth="yes"/>
      <point x="346" y="636"/>
      <point x="386" y="580"/>
      <point x="386" y="505" type="curve" smooth="yes"/>
      <point x="386" y="431"/>
      <point x="348" y="367"/>
      <point x="261" y="367" type="curve" smooth="yes"/>
      <point x="217" y="367" type="line"/>
    </contour>
  </outline>
</glyph>
<glyph name="uniA6EC" format="2">
  <advance width="473.72131"/>
  <unicode hex="A6EC"/>
  <outline>
    <contour>
      <point x="18" y="0" type="line"/>
      <point x="423" y="0" type="line"/>
      <point x="423" y="89" type="line"/>
      <point x="275" y="89" type="line"/>
      <point x="275" y="602" type="line"/>
      <point x="302" y="585"/>
      <point x="329" y="572"/>
      <point x="359" y="558" type="curve" smooth="yes"/>
      <point x="426" y="526" type="line"/>
      <point x="426" y="624" type="line"/>
      <point x="242" y="714" type="line"/>
      <point x="167" y="714" type="line"/>
      <point x="167" y="89" type="line"/>
      <point x="18" y="89" type="line"/>
    </contour>
  </outline>
</glyph>
<glyph name="uniA6EE" format="2">
  <advance width="581.77049"/>
  <unicode hex="A6EE"/>
  <outline>
    <contour>
      <point x="18" y="0" type="line"/>
      <point x="261" y="0" type="line"/>
      <point x="261" y="621" type="line"/>
      <point x="379" y="621" type="line"/>
      <point x="379" y="0" type="line"/>
      <point x="487" y="0" type="line"/>
      <point x="487" y="714" type="line"/>
      <point x="153" y="714" type="line"/>
      <point x="153" y="93" type="line"/>
      <point x="18" y="93" type="line"/>
    </contour>
  </outline>
</glyph>
<glyph name="uniA6EF" format="2">
  <advance width="551.06557"/>
  <unicode hex="A6EF"/>
  <outline>
    <contour>
      <point x="276" y="-9" type="curve" smooth="yes"/>
      <point x="424" y="-9"/>
      <point x="512" y="65"/>
      <point x="512" y="191" type="curve" smooth="yes"/>
      <point x="512" y="209"/>
      <point x="510" y="223"/>
      <point x="506" y="237" type="curve"/>
      <point x="398" y="237" type="line"/>
      <point x="401" y="225"/>
      <point x="403" y="215"/>
      <point x="403" y="200" type="curve" smooth="yes"/>
      <point x="403" y="113"/>
      <point x="346" y="83"/>
      <point x="277" y="83" type="curve" smooth="yes"/>
      <point x="196" y="83"/>
      <point x="155" y="119"/>
      <point x="155" y="182" type="curve" smooth="yes"/>
      <point x="155" y="251"/>
      <point x="199" y="277"/>
      <point x="308" y="322" type="curve" smooth="yes"/>
      <point x="420" y="369"/>
      <point x="491" y="428"/>
      <point x="491" y="539" type="curve" smooth="yes"/>
      <point x="491" y="666"/>
      <point x="403" y="724"/>
      <point x="283" y="724" type="curve" smooth="yes"/>
      <point x="150" y="724"/>
      <point x="76" y="645"/>
      <point x="77" y="547" type="curve" smooth="yes"/>
      <point x="77" y="541"/>
      <point x="77" y="533"/>
      <point x="79" y="524" type="curve"/>
      <point x="187" y="524" type="line"/>
      <point x="186" y="532"/>
      <point x="185" y="541"/>
      <point x="185" y="546" type="curve" smooth="yes"/>
      <point x="185" y="600"/>
      <point x="225" y="630"/>
      <point x="283" y="630" type="curve" smooth="yes"/>
      <point x="346" y="630"/>
      <point x="381" y="598"/>
      <point x="381" y="540" type="curve" smooth="yes"/>
      <point x="381" y="471"/>
      <point x="333" y="443"/>
      <point x="229" y="400" type="curve" smooth="yes"/>
      <point x="119" y="354"/>
      <point x="45" y="294"/>
      <point x="45" y="178" type="curve" smooth="yes"/>
      <point x="45" y="51"/>
      <point x="130" y="-9"/>
    </contour>
  </outline>
</glyph>
<glyph name="uniA6F0" format="2">
  <unicode hex="A6F0"/>
  <outline>
    <contour>
      <point x="33" y="815" type="line"/>
      <point x="182" y="815" type="line"/>
      <point x="391" y="991" type="line"/>
      <point x="311" y="991" type="line"/>
      <point x="524" y="815" type="line"/>
      <point x="674" y="815" type="line"/>
      <point x="400" y="1035" type="line"/>
      <point x="304" y="1035" type="line"/>
    </contour>
  </outline>
</glyph>
<glyph name="uniA6F1" format="2">
  <unicode hex="A6F1"/>
  <outline>
    <contour>
      <point x="50" y="846" type="line"/>
      <point x="657" y="846" type="line"/>
      <point x="657" y="919" type="line"/>
      <point x="50" y="919" type="line"/>
    </contour>
  </outline>
</glyph>
<glyph name="uniA6F2" format="2">
  <advance width="622.83607"/>
  <unicode hex="A6F2"/>
  <outline>
    <contour>
      <point x="306" y="-3" type="curve" smooth="yes"/>
      <point x="450" y="-3"/>
      <point x="544" y="86"/>
      <point x="544" y="248" type="curve" smooth="yes"/>
      <point x="544" y="368"/>
      <point x="477" y="475"/>
      <point x="382" y="567" type="curve"/>
      <point x="262" y="567" type="line"/>
      <point x="360" y="469"/>
      <point x="437" y="366"/>
      <point x="437" y="256" type="curve" smooth="yes"/>
      <point x="437" y="136"/>
      <point x="385" y="85"/>
      <point x="308" y="85" type="curve" smooth="yes"/>
      <point x="244" y="85"/>
      <point x="185" y="125"/>
      <point x="185" y="225" type="curve" smooth="yes"/>
      <point x="185" y="270"/>
      <point x="192" y="305"/>
      <point x="204" y="348" type="curve"/>
      <point x="99" y="348" type="line"/>
      <point x="85" y="301"/>
      <point x="78" y="267"/>
      <point x="78" y="218" type="curve" smooth="yes"/>
      <point x="78" y="63"/>
      <point x="183" y="-3"/>
    </contour>
    <component base="_dot" xOffset="54" yOffset="270"/>
  </outline>
</glyph>
<glyph name="uniA6F3" format="2">
  <advance width="386.11475"/>
  <unicode hex="A6F3"/>
  <outline>
    <contour>
      <point x="32" y="0" type="line"/>
      <point x="142" y="0" type="line"/>
      <point x="273" y="714" type="line"/>
      <point x="169" y="714" type="line"/>
    </contour>
    <component base="_dot" xOffset="48" yOffset="-48"/>
  </outline>
</glyph>
<glyph name="uniA6F5" format="2">
  <advance width="499.47541"/>
  <unicode hex="A6F5"/>
  <outline>
    <contour>
      <point x="452" y="412" type="line"/>
      <point x="48" y="412" type="line"/>
      <point x="48" y="322" type="line"/>
      <point x="197" y="322" type="line"/>
      <point x="138" y="0" type="line"/>
      <point x="246" y="0" type="line"/>
      <point x="305" y="322" type="line"/>
      <point x="452" y="322" type="line"/>
    </contour>
  </outline>
</glyph>
<glyph name="uniA6F6" format="2">
  <advance width="770.52459"/>
  <unicode hex="A6F6"/>
  <outline>
    <contour>
      <point x="452" y="322" type="line"/>
      <point x="452" y="412" type="line"/>
      <point x="48" y="412" type="line"/>
      <point x="48" y="322" type="line"/>
      <point x="197" y="322" type="line"/>
      <point x="138" y="0" type="line"/>
      <point x="246" y="0" type="line"/>
      <point x="305" y="322" type="line"/>
    </contour>
    <contour>
      <point x="519" y="412" type="line"/>
      <point x="440" y="0" type="line"/>
      <point x="550" y="0" type="line"/>
      <point x="626" y="412" type="line"/>
    </contour>
    <component base="_dot" xOffset="430" yOffset="-194"/>
  </outline>
</glyph>
<glyph name="uniA6F7" format="2">
  <advance width="708.18033"/>
  <unicode hex="A6F7"/>
  <outline>
    <contour>
      <point x="302" y="144" type="line"/>
      <point x="403" y="144" type="line"/>
      <point x="674" y="364" type="line"/>
      <point x="525" y="364" type="line"/>
      <point x="407" y="265" type="line"/>
      <point x="407" y="714" type="line"/>
      <point x="299" y="714" type="line"/>
      <point x="299" y="264" type="line"/>
      <point x="182" y="364" type="line"/>
      <point x="34" y="364" type="line"/>
    </contour>
    <component base="_dot" xOffset="88" yOffset="-345"/>
  </outline>
</glyph>
<glyph name="_dot" format="2">
  <advance width="493.95082"/>
  <outline>
    <contour>
      <point x="265" y="335" type="curve" smooth="yes"/>
      <point x="295" y="335"/>
      <point x="321" y="354"/>
      <point x="321" y="395" type="curve" smooth="yes"/>
      <point x="321" y="436"/>
      <point x="295" y="455"/>
      <point x="265" y="455" type="curve" smooth="yes"/>
      <point x="233" y="455"/>
      <point x="209" y="436"/>
      <point x="209" y="395" type="curve" smooth="yes"/>
      <point x="209" y="354"/>
      <point x="233" y="335"/>
    </contour>
  </outline>
</glyph>
